<?xml version="1.0" encoding="utf-8"?>
<!-- Generator: Adobe Illustrator 16.0.0, SVG Export Plug-In . SVG Version: 6.00 Build 0)  -->
<!DOCTYPE svg PUBLIC "-//W3C//DTD SVG 1.1//EN" "http://www.w3.org/Graphics/SVG/1.1/DTD/svg11.dtd">
<svg version="1.1" xmlns="http://www.w3.org/2000/svg" xmlns:xlink="http://www.w3.org/1999/xlink" x="0px" y="0px"
	 width="690.243px" height="457.434px" viewBox="0 0 690.243 457.434" enable-background="new 0 0 690.243 457.434"
	 xml:space="preserve">
<g id="Layer_2">
</g>
<g id="Layer_1">
	<path fill="#F15954" d="M657.728,134.154l-42.894-8.17l-15.238-2.902l-13.211,8.13l-8.851,5.447l-6.22,3.828l-5.692-16.669
		l-21.246-5.216l-56.851-13.957l-36.395-8.935l-4.978,15.759l-6.549-4.911l-6.003-4.502l-7.228-2.02l-52.09-14.56l-10.294-2.877
		l-10.357,2.641l-8.549,2.18l-29.227-0.93l-6.793-0.216l-0.278-2.917l-1.653-17.359l1.593-14.47l3.791-34.426l-33.529-8.677
		L264.52,4.681l-7.186-1.86l-7.375,0.842l-3.475,0.397l-7.046-2.217L233.579,0h-6.144h-5.107h-28.38l-3.782,10.807l-3.649,0.633
		l-20.423,3.542l-15.808,1.385l-33.206,2.908l-0.927,9.833h-1.313H94.542H67.558l-10.105,25.02l-4.022,9.958l-3.498,8.66
		l0.699,9.313l0.934,12.443l-1.623,8.193l-7.013,35.396l34.49,10.609l6.638,2.042l13.306,4.093l9.187-3.578L68.755,266.991
		L21.643,397.485L0,457.434l63.395-6.579l45.96-4.77l34.87-3.618l0.985-35.044l0.364-12.964l13.307-20.55l4.256-6.572l1.463-7.692
		l0.565-2.97l4.518-10.686l5.399-1.343l7.295,37.609l6.635,34.203l34.791-1.879l25.19-1.36l3.463-0.187l3.379-0.78l19.206-4.436
		l2.411,10.591l6.527,28.668l29.31,2.327l19.4,1.54l5.36,0.425l5.283-1.005l20.601-3.92l21.477-4.087l8.157-20.283l6.64-16.51
		l2.518-6.259l0.324-6.739l1.191-24.681l0.192-3.991l-0.602-3.95l-0.086-0.569l7.028-3.431l14.46-7.059l3.209-1.566l2.88-2.11
		l11.456-8.391l6.494-1.481l5.643-1.287l5.047-2.834l6.602-3.707l-1.769,3.48L443.348,373.2l-1.114,2.192l-0.836,2.313
		l-7.149,19.749l-16.576,45.795l48.144,7.36l31.148,4.762l3.005,0.459h3.04h8.341h27.746l9.72-25.988l13.622-36.427l10.116-13.401
		l0.706-0.936l0.649-0.975l17.021-25.532l0.873-1.311l0.767-1.374l14.602-26.145l17.448-31.088l32.085-43l11.835-14.791l5.928-7.409
		l1.97-9.282l1.447-6.827l8.661-18.72l3.697-7.991v-8.805v-2.383v-33.101L657.728,134.154z"/>
	<g>
		<g>
			<path d="M266.926,356.599l-4.09-33.02v-13.28l-12.59-32.68l-13.96-50.041l-22.47-87.83l-47.32-9.19l-8.85,3.4l-9.87,19.91
				l-41.19,126.128l-47.32,131.071l45.96-4.77l0.68-24.171l19.4-29.96l1.36-7.149l13.96-33.021l65.7-16.338l15.32,78.979l25.19-1.36
				l22.13-5.11L266.926,356.599z M201.736,281.019l-34.56,6.979l-19.06,7.662l-6.13-1.701l17.02-43.58l10.22-28.589l7.83-25.87
				l10.21,27.57l12.93,47.32l1.54,5.45V281.019z"/>
		</g>
		<g>
			<polygon points="89.18,110.469 91.861,96.937 90.52,79.065 94.542,69.107 114.84,69.107 121.222,75.618 121.222,95.15 
				117.776,103.958 95.818,112.511 			"/>
		</g>
		<g>
			<polygon points="153.775,95.916 152.115,73.831 153.775,56.213 171.265,54.682 193.351,50.852 196.287,54.17 193.605,67.958 
				195.137,96.682 191.179,100.895 174.202,102.043 			"/>
		</g>
		<g>
			<polygon points="213.987,104.511 213.987,63.83 222.327,40 227.435,40 242.583,44.766 254.499,43.405 268.966,47.149 
				266.923,65.702 268.966,87.149 264.029,100.938 232.711,99.575 216.711,104.511 			"/>
		</g>
		<g>
			<path d="M458.495,259.579l-4.849-66.13l-15.57-38.04l-22.47-16.85l-52.09-14.56l-14.04,3.58l-34.891-1.11l-5.449,12.6
				l-1.02,67.23l4.08,44.77l3.75,39.14l-2.551,41.03l3.911,48.341l-3.911,16.509l3.06,13.44l19.4,1.54l20.601-3.92l6.64-16.51
				l1.19-24.681l-6.81-44.77l35.75-1.191l14.46-7.059l18.13-13.279l14.56-3.321l22.72-12.759l2.301-9.451L458.495,259.579z
				 M411.267,284.769l-34.721,23.83h-24.17l3.74-3.41l5.11-68.31l-5.45-79.09l-1.7-12.26l11.91-3.74l19.41,9.19l17.02,31.32
				l10.89,91.91L411.267,284.769z"/>
		</g>
		<g>
			<polygon points="477.988,143.49 471.86,162.894 477.988,168.681 512.371,255.49 534.158,278.299 509.308,337.873 
				500.456,349.107 479.009,391.319 471.86,411.068 503.009,415.83 511.35,415.83 527.009,373.958 540.627,355.916 557.647,330.384 
				572.286,304.171 591.009,270.813 625.05,225.192 637.308,209.873 639.69,198.639 650.243,175.83 650.243,173.447 607.35,165.277 
				598.499,170.724 566.499,232.681 563.093,240.852 561.051,238.554 549.135,217.702 539.605,171.405 534.839,157.447 			"/>
		</g>
	</g>
</g>
</svg>
