<?xml version="1.0" encoding="utf-8"?>
<!-- Generator: Adobe Illustrator 16.0.0, SVG Export Plug-In . SVG Version: 6.00 Build 0)  -->
<!DOCTYPE svg PUBLIC "-//W3C//DTD SVG 1.1//EN" "http://www.w3.org/Graphics/SVG/1.1/DTD/svg11.dtd">
<svg version="1.1" id="Layer_1" xmlns="http://www.w3.org/2000/svg" xmlns:xlink="http://www.w3.org/1999/xlink" x="0px" y="0px"
	 width="314.946px" height="457.434px" viewBox="0 0 314.946 457.434" enable-background="new 0 0 314.946 457.434"
	 xml:space="preserve">
<polygon fill="#F15954" points="308.358,361.225 306.497,350.665 302.836,321.11 302.836,310.299 302.836,302.86 300.162,295.919 
	288.261,265.026 274.932,217.249 255.321,140.597 262.291,140.9 291.75,142.181 301.688,114.42 306.625,100.632 309.631,92.235 
	308.785,83.356 307.132,65.998 308.726,51.527 312.517,17.102 278.987,8.425 264.52,4.681 257.334,2.821 249.959,3.664 
	246.484,4.061 239.439,1.844 233.579,0 227.435,0 222.327,0 193.947,0 190.165,10.807 186.516,11.44 166.093,14.981 150.285,16.366 
	117.079,19.274 116.152,29.107 114.84,29.107 94.542,29.107 67.558,29.107 57.452,54.127 53.43,64.085 49.933,72.745 50.632,82.059 
	51.565,94.501 49.942,102.695 42.929,138.091 77.419,148.701 84.057,150.743 97.363,154.836 106.55,151.258 68.754,266.992 
	21.643,397.485 0,457.434 63.395,450.854 109.355,446.085 144.225,442.467 145.21,407.423 145.575,394.459 158.882,373.909 
	163.138,367.337 164.601,359.646 165.166,356.676 169.684,345.989 175.083,344.646 182.379,382.256 189.013,416.459 223.804,414.58 
	248.993,413.22 252.456,413.033 255.836,412.253 277.966,407.143 314.946,398.603 "/>
<g>
	<path d="M266.927,356.599l-4.091-33.02v-13.28l-12.59-32.68l-13.96-50.041l-22.47-87.83l-47.32-9.19l-8.85,3.4l-9.87,19.91
		l-41.19,126.128l-47.32,131.071l45.96-4.77l0.68-24.171l19.4-29.96l1.36-7.149l13.96-33.021l65.7-16.338l15.32,78.979l25.189-1.36
		l22.13-5.11L266.927,356.599z M201.736,281.019l-34.56,6.979l-19.061,7.662l-6.13-1.701l17.02-43.58l10.22-28.589l7.83-25.87
		l10.21,27.57l12.93,47.32l1.54,5.45V281.019z"/>
	<polygon points="89.18,110.469 91.861,96.937 90.52,79.065 94.542,69.107 114.84,69.107 121.222,75.618 121.222,95.15 
		117.776,103.958 95.818,112.511 	"/>
	<polygon points="153.775,95.916 152.115,73.831 153.775,56.213 171.265,54.682 193.351,50.852 196.286,54.17 193.605,67.958 
		195.138,96.682 191.18,100.895 174.201,102.043 	"/>
	<polygon points="213.987,104.511 213.987,63.83 222.327,40 227.435,40 242.583,44.766 254.498,43.405 268.966,47.149 
		266.923,65.702 268.966,87.149 264.029,100.938 232.711,99.575 216.711,104.511 	"/>
</g>
</svg>
