{
    "asset" : {
        "generator" : "Khronos glTF Blender I/O v1.2.75",
        "version" : "2.0"
    },
    "scene" : 0,
    "scenes" : [
        {
            "name" : "Scene",
            "nodes" : [
                0
            ]
        }
    ],
    "nodes" : [
        {
            "mesh" : 0,
            "name" : "Curve.002"
        }
    ],
    "meshes" : [
        {
            "name" : "Curve.002",
            "primitives" : [
                {
                    "attributes" : {
                        "POSITION" : 0,
                        "NORMAL" : 1
                    },
                    "indices" : 2
                }
            ]
        }
    ],
    "accessors" : [
        {
            "bufferView" : 0,
            "componentType" : 5126,
            "count" : 1740,
            "max" : [
                1.9899052381515503,
                3.2016119956970215,
                0.5689036846160889
            ],
            "min" : [
                -1.6951682567596436,
                0.020697951316833496,
                -0.5689096450805664
            ],
            "type" : "VEC3"
        },
        {
            "bufferView" : 1,
            "componentType" : 5126,
            "count" : 1740,
            "type" : "VEC3"
        },
        {
            "bufferView" : 2,
            "componentType" : 5123,
            "count" : 9984,
            "type" : "SCALAR"
        }
    ],
    "bufferViews" : [
        {
            "buffer" : 0,
            "byteLength" : 20880,
            "byteOffset" : 0
        },
        {
            "buffer" : 0,
            "byteLength" : 20880,
            "byteOffset" : 20880
        },
        {
            "buffer" : 0,
            "byteLength" : 19968,
            "byteOffset" : 41760
        }
    ],
    "buffers" : [
        {
            "byteLength" : 61728,
            "uri" : "data:application/octet-stream;base64,"
        }
    ]
}
