<svg xmlns="http://www.w3.org/2000/svg" viewBox="0 0 547.26 552.11"><defs><style>.cls-1{opacity:0.11;}.cls-2{opacity:0.5;}.cls-3,.cls-4,.cls-5,.cls-6,.cls-7,.cls-8{fill:#ff0;}.cls-3{opacity:0.06;}.cls-4{opacity:0.15;}.cls-5{opacity:0.2;}.cls-6{opacity:0.25;}.cls-7{opacity:0.28;}.cls-8{opacity:0.29;}.cls-9{fill:#ae3753;}.cls-10{fill:#6ac7ba;}.cls-11{fill:#222;}</style></defs><title>Diilikonegraffa_työtiedosto</title><g id="Rinkulat"><circle class="cls-3" cx="273.67" cy="278.52" r="273.59"/><circle class="cls-4" cx="273.67" cy="278.52" r="223.61"/><circle class="cls-5" cx="273.67" cy="278.52" r="177.79"/><circle class="cls-6" cx="273.67" cy="278.52" r="135.87"/><circle class="cls-7" cx="273.67" cy="278.52" r="98.83"/><circle class="cls-8" cx="273.67" cy="278.52" r="63.73"/><path class="cls-9" d="M275.06,250.1A38.81,38.81,0,1,0,293,323.33v4.38h20.87v-38.8A38.81,38.81,0,0,0,275.06,250.1Zm0,56.78a17.94,17.94,0,1,1,17.93-18v0A17.94,17.94,0,0,1,275.06,306.88Z"/><path class="cls-9" d="M260.94,235.14a12.35,12.35,0,1,1-12.35-12.34,12.34,12.34,0,0,1,12.35,12.34"/><path class="cls-9" d="M287.4,235.14a12.34,12.34,0,1,1-12.34-12.34,12.34,12.34,0,0,1,12.34,12.34"/><path class="cls-9" d="M314,235.14a12.34,12.34,0,1,1-12.34-12.34A12.34,12.34,0,0,1,314,235.14"/><path class="cls-10" d="M270.64,247a38.81,38.81,0,1,0,17.94,73.22v4.39h20.86v-38.8A38.81,38.81,0,0,0,270.64,247Zm0,56.78a17.94,17.94,0,1,1,17.94-18v0A17.94,17.94,0,0,1,270.64,303.79Z"/><path class="cls-10" d="M256.52,232.05a12.35,12.35,0,1,1-12.34-12.34,12.34,12.34,0,0,1,12.34,12.34"/><path class="cls-10" d="M283,232.05a12.34,12.34,0,1,1-12.34-12.34A12.34,12.34,0,0,1,283,232.05"/><path class="cls-10" d="M309.56,232.05a12.34,12.34,0,1,1-12.34-12.34,12.34,12.34,0,0,1,12.34,12.34"/><path class="cls-11" d="M273,248.8A38.81,38.81,0,1,0,290.91,322v4.39h20.87v-38.8A38.81,38.81,0,0,0,273,248.8Zm0,56.78a17.94,17.94,0,1,1,17.93-18v0A17.94,17.94,0,0,1,273,305.58Z"/><path class="cls-11" d="M258.85,233.84a12.34,12.34,0,1,1-12.34-12.34,12.33,12.33,0,0,1,12.34,12.34"/><path class="cls-11" d="M285.32,233.84A12.35,12.35,0,1,1,273,221.5a12.34,12.34,0,0,1,12.35,12.34"/><path class="cls-11" d="M311.9,233.84a12.35,12.35,0,1,1-12.35-12.34,12.34,12.34,0,0,1,12.35,12.34"/></g><g id="Isot_tekstit" data-name="Isot tekstit"><path class="cls-9" d="M109.84,516.75a4.85,4.85,0,0,0-1.32.12,4.91,4.91,0,0,0-2.58,1.31c-3.07,3.7-7.08,5.3-11.24,6.11-3.52.68-4.11-.29-4.24-.94-.83-4.29,23.64-67.39,28.12-87.44,1.62-6.94,1.09-10.34.69-12.42l-.21-1.05c-.27-1.43,1.49-4.2,21-8,22.65-4.4,33.88,1.93,36.56,15.72,4.27,22-8.15,76.95-52.52,85.58C114.34,517.63,112.42,516.79,109.84,516.75ZM146,421.26a10.91,10.91,0,0,0-7.62,5.27c-8.17,15.63-26.75,71.51-25.51,77.89.63,3.25,4.78,4.47,12.07,3.05,27.59-5.36,40.35-61.33,37.31-76.94C160.64,422.33,156.13,419.29,146,421.26Z"/><path class="cls-9" d="M174.08,501.7c-.93-4.82,10.87-33.72,9.37-44.23-.27-2.11,1.68-3.84,1.68-3.84s3.69-3.28,11.89-4.88c1.56-.3,5.2-.33,5.5,1.23a1.41,1.41,0,0,1-.21,1c-5.2,10.07-15.64,40.46-19.25,54.53,0,0-.17,2.6-1.21,2.8C179.76,508.7,175,506.51,174.08,501.7Zm24.26-60.76c-3.39.66-6.19-.56-6.88-3.4l0-.13c-1.09-5.59,5.44-10.24,9.73-11.07,3.38-.66,6.19.55,6.87,3.39C209.15,435.45,202.76,440.08,198.34,440.94Z"/><path class="cls-9" d="M199.61,496.74c-.94-4.82,10.86-33.72,9.36-44.23-.27-2.11,1.68-3.84,1.68-3.84s3.69-3.28,11.89-4.88c1.56-.3,5.2-.33,5.51,1.23a1.42,1.42,0,0,1-.22,1c-5.2,10.06-15.64,40.45-19.25,54.53,0,0-.17,2.6-1.21,2.8C205.29,503.74,200.55,501.55,199.61,496.74ZM223.86,436c-3.39.65-6.19-.56-6.87-3.4l0-.13c-1.09-5.59,5.44-10.24,9.73-11.07,3.38-.66,6.19.55,6.87,3.39C234.67,430.49,228.28,435.12,223.86,436Z"/><path class="cls-9" d="M261.31,379.13c2.16-5.55,9-10,14.2-11,.65-.13,3.41-.53,3.92,1.4a2.59,2.59,0,0,1-.5,1.58c-8.54,11.66-49,101-41.58,139.09.13.65.25,2-.79,2.18-6.25,1.21-9.39-8.71-10.33-13.53C222,477.25,247.76,413,261.31,379.13Z"/><path class="cls-9" d="M247,487.52c-.94-4.81,10.86-33.71,9.36-44.23-.27-2.11,1.68-3.83,1.68-3.83s3.69-3.29,11.89-4.88c1.56-.3,5.2-.34,5.51,1.23a1.42,1.42,0,0,1-.22,1c-5.2,10.06-15.64,40.45-19.25,54.53,0,0-.17,2.6-1.21,2.8C252.69,494.52,247.94,492.34,247,487.52Zm24.25-60.76c-3.39.66-6.19-.55-6.88-3.39l0-.13c-1.09-5.6,5.44-10.24,9.73-11.08,3.38-.65,6.19.55,6.87,3.4C282.07,421.28,275.68,425.9,271.26,426.76Z"/><path class="cls-9" d="M315,463.5c2.7,13.92,9.16,26.31,9.24,26.7.18.91-1.1,1.29-1.1,1.29-8.85,1.72-20.09-21.35-22.08-31.62a2.28,2.28,0,0,1,1.07-2.11c3.65-2.06,17.81-12.64,16.11-21.36a1.81,1.81,0,0,0-2.18-1.47c-11.71,2.28-30.68,33.24-35.15,47.75a1.94,1.94,0,0,1-1.46,1.5c-2.35.46-6.36-2.81-7.24-7.36a10.05,10.05,0,0,1,.1-4.35c9.26-34.35,34.08-114.4,58.68-119.18,4.94-1,6.77,2.19,7.53,6.1,4.05,20.82-16.34,50.72-26.65,57.45A9.11,9.11,0,0,1,308,418.4c-1.18.23-2.5.35-2.73-.82-.1-.52.55-1.32.55-1.32,16.77-17.31,21.43-37.79,20.59-42.09-.35-1.82-.92-2.66-2.74-2.3-10.28,2-30.53,62.52-29.21,69.29a1.64,1.64,0,0,0,1.89,1.39,4.52,4.52,0,0,0,2.35-1.81S311.92,424,326,421.26c3.77-.74,6.75.71,7.54,4.74,2.83,14.58-19.95,25.89-19.37,31.72C314.38,459.57,314.63,461.55,315,463.5Z"/><path class="cls-9" d="M331.55,459.48c-3.19-16.4,10.65-43.13,33.69-47.61,2.22-.43,12.15-.74,13.54,6.41.71,3.65-.76,4.47-.45,6,.12.65.83,1.46,3.56.93s3.26-2,4.3-2.19c.52-.1,1.12.19,1.47,2,.79,4-1.9,10.36-6.65,13.71,0,0-6.58,29.37-31.05,34.13C347.36,473.42,334.56,475,331.55,459.48Zm32.4-16a16.74,16.74,0,0,0-4.59,2.11,2.64,2.64,0,0,1-1,.59c-.65.13-.94-.63-1-1a14.38,14.38,0,0,1,1.95-9.43c3.2-5.07,9.44-4.26,7.87-12.33-.81-4.16-4.77-3.66-5.55-3.51-12,2.32-19.2,26.28-17.05,37.35.15.78,2,7.44,8.76,6.13,10-1.95,13.33-14.08,12.35-19.15C365.56,443.41,364.86,443.27,364,443.45Z"/><path class="cls-9" d="M419.2,459.32a1.62,1.62,0,0,1,.11-.83c1.84-4.41,13.28-33.11,11.86-40.39a2.16,2.16,0,0,0-2.53-1.94c-11.2,2.17-28.2,30.06-32.38,39.11-1.89,4.15-6.66,5.34-8.22,5.65-3,.58-3.61-.52-3.71-1-.76-3.9,15.18-48.33,20.74-51.7a12.94,12.94,0,0,1,5.73-2.47c1.57-.3,3.18-.34,3.38.69.53,2.74-4.47,10.33-3.94,13.07a1.41,1.41,0,0,0,1.5.78,2.13,2.13,0,0,0,1.2-.77c7.51-8.62,17.52-18.94,27.81-20.94,1.55-.3,4.91-.42,5.89,4.66,1.27,6.51-10.19,54.52-23.47,57.1C420.18,460.88,419.35,460.1,419.2,459.32Z"/><path class="cls-9" d="M449.55,440.19c-2.88-14.84,6.72-46,33-51.12,2.47-.48,8.92-.66,10.46,7.28,3.14,16.14-13.89,30.66-23.73,33.52-5.63,1.63-7.64,3.1-6.47,9.08,1.92,9.9,9.47,7.07,10,9.55s-2.63,4.56-5.49,5.12C456.62,455.69,451.27,449,449.55,440.19Zm27.06-41.46c-6.9,1.34-15.35,16.22-13.86,23.9,0,0,.28,1.43,2.49,1,6-1.16,17.74-11.55,15.79-21.58C480.28,398.15,477.65,398.53,476.61,398.73Z"/><path d="M105.73,519.26a4.49,4.49,0,0,0-1.32.12,4.91,4.91,0,0,0-2.58,1.31c-3.07,3.7-7.08,5.3-11.24,6.11-3.52.68-4.11-.29-4.24-.94-.83-4.29,23.64-67.39,28.12-87.44,1.62-6.94,1.09-10.34.69-12.43l-.21-1c-.27-1.43,1.49-4.2,21-8,22.65-4.4,33.88,1.93,36.56,15.72,4.27,22-8.15,76.95-52.52,85.57C110.23,520.14,108.31,519.3,105.73,519.26Zm36.14-95.49a10.93,10.93,0,0,0-7.62,5.26c-8.17,15.64-26.75,71.52-25.51,77.9.63,3.25,4.78,4.47,12.07,3.05,27.59-5.36,40.35-61.33,37.31-76.94C156.53,424.84,152,421.8,141.87,423.77Z"/><path d="M170,504.21c-.93-4.82,10.87-33.72,9.37-44.23-.27-2.11,1.68-3.84,1.68-3.84s3.69-3.28,11.89-4.88c1.56-.3,5.2-.33,5.5,1.23a1.41,1.41,0,0,1-.21,1C193,463.53,182.56,493.92,179,508c0,0-.17,2.6-1.21,2.8C175.65,511.21,170.91,509,170,504.21Zm24.26-60.76c-3.39.65-6.19-.56-6.88-3.4l0-.13c-1.09-5.6,5.44-10.24,9.73-11.07,3.38-.66,6.19.55,6.87,3.39C205,438,198.65,442.59,194.23,443.45Z"/><path d="M195.5,499.24c-.94-4.81,10.86-33.71,9.36-44.23-.27-2.1,1.68-3.83,1.68-3.83s3.69-3.28,11.89-4.88c1.56-.3,5.2-.33,5.51,1.23a1.42,1.42,0,0,1-.22,1c-5.2,10.06-15.64,40.45-19.25,54.53,0,0-.17,2.6-1.21,2.8C201.18,506.24,196.44,504.06,195.5,499.24Zm24.25-60.76c-3.39.66-6.19-.55-6.87-3.39l0-.13c-1.09-5.6,5.44-10.24,9.73-11.07,3.38-.66,6.19.55,6.87,3.39C230.56,433,224.17,437.62,219.75,438.48Z"/><path d="M257.2,381.64c2.16-5.55,9-10,14.2-11,.65-.13,3.41-.53,3.92,1.4a2.6,2.6,0,0,1-.5,1.58c-8.54,11.66-49,101-41.58,139.09.13.65.25,2-.79,2.18-6.25,1.21-9.39-8.71-10.33-13.53C217.92,479.76,243.65,415.47,257.2,381.64Z"/><path d="M242.9,490c-.94-4.82,10.86-33.72,9.36-44.23-.27-2.11,1.68-3.83,1.68-3.83s3.69-3.29,11.89-4.88c1.56-.31,5.2-.34,5.51,1.23a1.42,1.42,0,0,1-.22,1c-5.2,10.06-15.64,40.45-19.25,54.52,0,0-.17,2.6-1.21,2.81C248.58,497,243.83,494.85,242.9,490Zm24.25-60.76c-3.39.66-6.19-.56-6.88-3.39l0-.13c-1.09-5.6,5.44-10.24,9.73-11.08,3.38-.66,6.19.55,6.87,3.39C278,423.79,271.57,428.41,267.15,429.27Z"/><path d="M310.9,466c2.7,13.92,9.16,26.31,9.24,26.7.18.91-1.1,1.29-1.1,1.29-8.85,1.72-20.09-21.35-22.08-31.63a2.27,2.27,0,0,1,1.07-2.1c3.65-2.06,17.81-12.65,16.11-21.36a1.8,1.8,0,0,0-2.18-1.47c-11.71,2.28-30.68,33.24-35.15,47.75a1.94,1.94,0,0,1-1.46,1.5c-2.35.46-6.36-2.81-7.24-7.37a10,10,0,0,1,.1-4.34c9.26-34.35,34.08-114.4,58.68-119.18,4.94-1,6.77,2.19,7.53,6.1,4.05,20.82-16.34,50.71-26.65,57.45a9.37,9.37,0,0,1-3.88,1.56c-1.18.23-2.5.35-2.73-.82-.1-.52.56-1.32.56-1.32,16.76-17.31,21.42-37.79,20.58-42.09-.35-1.82-.92-2.66-2.74-2.3-10.28,2-30.53,62.52-29.21,69.28a1.64,1.64,0,0,0,1.89,1.4,4.52,4.52,0,0,0,2.35-1.81s13.22-16.75,27.28-19.48c3.77-.74,6.75.7,7.54,4.74,2.83,14.58-20,25.89-19.37,31.72C310.27,462.08,310.52,464.06,310.9,466Z"/><path d="M327.44,462c-3.19-16.4,10.65-43.13,33.69-47.61,2.22-.43,12.15-.75,13.54,6.41.71,3.65-.76,4.47-.45,6,.12.66.83,1.46,3.56.93s3.26-2,4.3-2.18c.52-.11,1.12.18,1.47,2,.79,4-1.9,10.36-6.65,13.71,0,0-6.58,29.37-31,34.13C343.25,475.92,330.45,477.47,327.44,462Zm32.4-16a16.74,16.74,0,0,0-4.59,2.11,2.64,2.64,0,0,1-1,.59c-.65.13-.94-.63-1-1a14.38,14.38,0,0,1,2-9.43c3.2-5.07,9.44-4.26,7.87-12.33-.81-4.17-4.77-3.67-5.55-3.52-12,2.33-19.2,26.29-17.05,37.36.15.77,2,7.44,8.76,6.12,10-1.94,13.33-14.07,12.35-19.14C361.45,445.92,360.75,445.78,359.84,446Z"/><path d="M415.09,461.83a1.62,1.62,0,0,1,.11-.83c1.84-4.41,13.28-33.11,11.86-40.4a2.16,2.16,0,0,0-2.53-1.93c-11.2,2.17-28.2,30.06-32.38,39.11-1.89,4.15-6.66,5.34-8.22,5.65-3,.58-3.61-.52-3.71-1-.76-3.9,15.18-48.33,20.74-51.71a13,13,0,0,1,5.73-2.46c1.57-.3,3.18-.35,3.38.69.53,2.74-4.47,10.33-3.94,13.06a1.41,1.41,0,0,0,1.5.79,2.18,2.18,0,0,0,1.2-.77c7.51-8.62,17.52-18.94,27.81-20.94,1.55-.3,4.91-.42,5.89,4.66,1.27,6.51-10.19,54.52-23.47,57.1C416.07,463.39,415.24,462.61,415.09,461.83Z"/><path d="M445.44,442.69c-2.88-14.83,6.72-46,33-51.12,2.47-.48,8.92-.65,10.46,7.28,3.14,16.14-13.89,30.66-23.73,33.52-5.63,1.64-7.64,3.11-6.47,9.09,1.92,9.89,9.47,7.07,10,9.55s-2.63,4.56-5.49,5.12C452.51,458.2,447.16,451.54,445.44,442.69Zm27.06-41.45c-6.9,1.34-15.35,16.22-13.86,23.89,0,0,.28,1.44,2.49,1,6-1.16,17.74-11.55,15.79-21.58C476.17,400.66,473.54,401,472.5,401.24Z"/><path class="cls-10" d="M103,518.09a4.24,4.24,0,0,0-1.33.12,5,5,0,0,0-2.58,1.31c-3.06,3.7-7.07,5.29-11.24,6.1-3.51.69-4.11-.28-4.23-.93-.84-4.3,23.63-67.4,28.11-87.45,1.63-6.93,1.1-10.34.69-12.42l-.2-1c-.28-1.43,1.48-4.21,21-8,22.64-4.4,33.87,1.92,36.55,15.72,4.28,22-8.14,76.94-52.51,85.57C107.47,519,105.55,518.13,103,518.09Zm36.14-95.49a10.88,10.88,0,0,0-7.62,5.26c-8.18,15.63-26.75,71.51-25.51,77.89.63,3.26,4.78,4.47,12.07,3.05,27.59-5.36,40.34-61.32,37.31-76.94C153.77,423.67,149.27,420.62,139.12,422.6Z"/><path class="cls-10" d="M167.22,503c-.94-4.81,10.87-33.72,9.36-44.23-.27-2.11,1.69-3.83,1.69-3.83s3.68-3.29,11.88-4.88c1.57-.31,5.21-.34,5.51,1.23a1.42,1.42,0,0,1-.22,1c-5.2,10.06-15.63,40.45-19.24,54.52,0,0-.18,2.61-1.21,2.81C172.9,510,168.15,507.85,167.22,503Zm24.25-60.76c-3.39.66-6.19-.55-6.87-3.39l0-.13c-1.09-5.6,5.44-10.24,9.73-11.08,3.39-.66,6.19.55,6.87,3.4C202.29,436.79,195.89,441.41,191.47,442.27Z"/><path class="cls-10" d="M192.74,498.07c-.93-4.82,10.87-33.72,9.36-44.23-.27-2.11,1.69-3.83,1.69-3.83s3.68-3.29,11.88-4.88c1.57-.31,5.21-.34,5.51,1.23a1.48,1.48,0,0,1-.21,1c-5.21,10.06-15.64,40.45-19.25,54.52,0,0-.17,2.6-1.22,2.81C198.43,505.07,193.68,502.89,192.74,498.07ZM217,437.31c-3.38.66-6.19-.56-6.87-3.39l0-.13c-1.08-5.6,5.44-10.24,9.73-11.08,3.39-.66,6.19.55,6.88,3.39C227.81,431.83,221.42,436.45,217,437.31Z"/><path class="cls-10" d="M254.44,380.46c2.16-5.55,9-10,14.2-11,.66-.12,3.41-.53,3.92,1.4a2.47,2.47,0,0,1-.5,1.59c-8.54,11.65-49,100.95-41.57,139.09.12.64.25,2-.8,2.17-6.24,1.22-9.39-8.71-10.32-13.52C215.17,478.59,240.89,414.29,254.44,380.46Z"/><path class="cls-10" d="M240.14,488.86c-.93-4.82,10.87-33.72,9.36-44.23-.27-2.11,1.69-3.84,1.69-3.84s3.68-3.28,11.88-4.88c1.57-.3,5.21-.33,5.51,1.23a1.42,1.42,0,0,1-.22,1c-5.2,10.07-15.63,40.46-19.24,54.53,0,0-.17,2.6-1.22,2.8C245.83,495.86,241.08,493.67,240.14,488.86Zm24.25-60.76c-3.38.66-6.19-.56-6.87-3.4l0-.13c-1.08-5.59,5.44-10.24,9.73-11.07,3.39-.66,6.19.55,6.88,3.39C275.21,422.61,268.82,427.24,264.39,428.1Z"/><path class="cls-10" d="M308.14,464.83c2.71,13.93,9.17,26.32,9.24,26.71.18.91-1.09,1.29-1.09,1.29-8.85,1.72-20.09-21.35-22.09-31.63a2.3,2.3,0,0,1,1.08-2.1c3.65-2.06,17.8-12.65,16.11-21.37a1.8,1.8,0,0,0-2.18-1.46c-11.72,2.27-30.68,33.24-35.15,47.75a2,2,0,0,1-1.47,1.5c-2.34.45-6.35-2.82-7.24-7.37a10.33,10.33,0,0,1,.1-4.34c9.27-34.35,34.09-114.4,58.68-119.18,4.95-1,6.77,2.19,7.53,6.09,4,20.83-16.34,50.72-26.64,57.45a9.16,9.16,0,0,1-3.89,1.56c-1.17.23-2.49.36-2.72-.81-.1-.52.55-1.33.55-1.33,16.76-17.3,21.42-37.79,20.59-42.09-.36-1.82-.93-2.65-2.75-2.3-10.28,2-30.52,62.52-29.21,69.29a1.63,1.63,0,0,0,1.9,1.39,4.45,4.45,0,0,0,2.35-1.81s13.21-16.75,27.27-19.48c3.77-.73,6.76.71,7.54,4.75,2.84,14.57-19.95,25.89-19.36,31.72C307.52,460.9,307.76,462.89,308.14,464.83Z"/><path class="cls-10" d="M324.68,460.81c-3.19-16.4,10.66-43.13,33.7-47.61,2.21-.43,12.14-.74,13.53,6.42.71,3.64-.75,4.47-.45,6,.13.65.83,1.46,3.56.93s3.26-2,4.3-2.19c.52-.1,1.12.19,1.48,2,.78,4-1.91,10.36-6.66,13.72,0,0-6.58,29.37-31.05,34.13C340.49,474.75,327.69,476.3,324.68,460.81Zm32.41-16a16.84,16.84,0,0,0-4.59,2.1,2.79,2.79,0,0,1-1,.6c-.66.12-.94-.63-1-1a14.43,14.43,0,0,1,2-9.43c3.21-5.08,9.44-4.27,7.87-12.34-.81-4.16-4.76-3.66-5.54-3.51-12,2.33-19.21,26.29-17.06,37.35.16.78,2,7.45,8.76,6.13,10-1.95,13.34-14.07,12.35-19.14C358.7,444.74,358,444.61,357.09,444.79Z"/><path class="cls-10" d="M412.34,460.65a1.67,1.67,0,0,1,.1-.83c1.85-4.41,13.29-33.1,11.87-40.39a2.18,2.18,0,0,0-2.54-1.94c-11.19,2.18-28.19,30.06-32.38,39.11-1.89,4.15-6.65,5.35-8.21,5.65-3,.58-3.62-.51-3.72-1-.76-3.91,15.19-48.33,20.74-51.71a13,13,0,0,1,5.74-2.46c1.56-.31,3.17-.35,3.37.69.53,2.73-4.47,10.33-3.94,13.06a1.41,1.41,0,0,0,1.5.79,2.14,2.14,0,0,0,1.21-.78c7.5-8.62,17.52-18.94,27.8-20.93,1.56-.31,4.91-.42,5.9,4.66,1.26,6.51-10.2,54.52-23.48,57.1C413.31,462.22,412.49,461.43,412.34,460.65Z"/><path class="cls-10" d="M442.68,441.52c-2.88-14.84,6.73-46,33-51.12,2.47-.48,8.91-.66,10.46,7.28,3.13,16.14-13.89,30.66-23.74,33.52-5.62,1.63-7.63,3.11-6.47,9.09,1.92,9.89,9.48,7.07,10,9.54s-2.63,4.57-5.49,5.12C449.75,457,444.4,450.37,442.68,441.52Zm27.06-41.46c-6.9,1.34-15.35,16.22-13.86,23.9,0,0,.28,1.44,2.5,1,6-1.17,17.74-11.56,15.79-21.58C473.41,399.49,470.78,399.86,469.74,400.06Z"/><path class="cls-9" d="M207.08,119.5c-1.54-7.93,8.32-25.25,7-32.28-.68-3.51-7.79-3.21-18.59-1.11-2.6.51-5.31,1.16-8,1.83l-3.68,7.47c-6.91,14.44-11.09,31.87-11.54,33.71-.75,3.11-7.05,4.74-9.39,5.2-1.56.3-6,1-6.39-.92s8.38-20.81,20.22-42.56c-5,1.51-10.83,3.32-11.09,3.37-1,.21-1.4-.94-1.4-.94-.63-3.25,4.34-9,7.23-10.73.94-.72,5.73-1.78,11.57-3.05l1.41-2.44c15.54-27.06,33.68-53.95,46-56.35,0,0,1.28-.39,3-.72,3.52-.68,9.11-1.09,9.82,2.56.33,1.69-3.66,13.13-9.25,35.82C229,78.91,221.69,113.42,221.32,124c0,0,.21,1-1.88,1.44C214.89,126.36,207.64,122.37,207.08,119.5Zm15.25-75.76c-.23-1.17-1.26-1.64-2.56-1.39C214.3,43.41,202.93,59.94,193,77.54c7.57-1.34,14.23-2.5,14.23-2.5C218.79,72.79,223.14,47.91,222.33,43.74Zm1-25.86c-2.86.55-5.12-.63-5.55-2.84-.65-3.39,2.91-8,7.72-8.93,2.73-.53,5.09.5,5.53,2.71C231.71,12.07,228.46,16.89,223.38,17.88Zm30.73-6c-2.73.53-5.12-.62-5.55-2.83-.65-3.39,2.91-8,7.72-8.93,2.73-.53,5.1.49,5.53,2.71C262.44,6.1,259.32,10.89,254.11,11.9Zm-15.38,3c-2.73.53-5.12-.62-5.55-2.83-.65-3.39,2.91-8,7.72-8.93,2.73-.53,5.09.49,5.53,2.71C247.06,9.09,243.94,13.88,238.73,14.89Z"/><path class="cls-9" d="M240.81,119.84c-4.2,8.24-20,60.47-22.38,76.6a2.23,2.23,0,0,1-1.78,2c-2.87.56-8.41-3-9.3-7.51-2-10.29,33.78-101.38,44-135.65,0,0,.63-5.79,9.87-7.59.78-.15,2.78-.27,3.06,1.16.36,1.83-5.13,11.81-4.58,14.67a.93.93,0,0,0,1.25.84c2.34-.46,6.83-7.95,16.2-9.77,2.73-.53,7.12.51,8.51,7.66,4.1,21.09-12.28,50.07-38.31,55.13C246.83,117.45,241.49,118.49,240.81,119.84Zm29-51.7c-13.54,2.64-24.14,34.27-23.81,36,.48,2.47,3.85,3.84,7.24,3.18,11.45-2.22,22.08-25.36,20.08-35.64C272.83,69.18,271.23,67.87,269.8,68.14Z"/><path class="cls-9" d="M275.45,191.57c-3.13.61-6.05-1.93-7.37-8.7-4.55-23.42,20.29-68.63,36.17-71.72,1.17-.23,2,0,2.15.66s-.55,1.33-1.26,1.87c-8.66,6.82-26.1,39.38-23,55.51.1.52.63,3.26,3,2.8,9.89-1.92,25.86-51.76,31.78-73.43,0,0,2.86-10.29,2.53-12-.22-1.17-.51-1.92-1.42-1.74a4.13,4.13,0,0,0-2.35,1.8c-6.94,8.78-14,15.68-20.21,16.89-2.61.51-6,.23-7.12-5.36-1.57-8.07,5.6-32.29,13.36-43.79,1.89-2.8,6.09-4.83,8.3-5.27,1.82-.35,3.91-.75,4.16.55.35,1.82-12.87,23.43-11,33.19.45,2.35,1.39,3,3.34,2.6,6.11-1.19,19.31-18.07,26.44-37.69.31-1.14,1.95-5.24,9.5-6.71,1.3-.25,3.92-.63,4.2.8a2.16,2.16,0,0,1-.18,1.12s-8.58,23.28-18,53.33C316.53,134.69,295.88,187.6,275.45,191.57Z"/><path class="cls-9" d="M376.59,91.28a1.74,1.74,0,0,1,.11-.83C378.55,86,390,57.34,388.57,50.06A2.17,2.17,0,0,0,386,48.12c-11.19,2.18-28.19,30.06-32.38,39.11-1.89,4.15-6.66,5.34-8.21,5.65-3,.58-3.62-.52-3.72-1-.76-3.91,15.19-48.34,20.74-51.71a13,13,0,0,1,5.74-2.47c1.56-.3,3.17-.34,3.37.7.53,2.73-4.47,10.32-3.94,13.06a1.41,1.41,0,0,0,1.5.78,2.1,2.1,0,0,0,1.2-.77c7.51-8.62,17.53-18.94,27.81-20.94,1.56-.3,4.91-.41,5.9,4.66,1.26,6.51-10.2,54.52-23.48,57.1C377.57,92.85,376.75,92.06,376.59,91.28Z"/><path d="M203.08,120.28C201.53,112.34,211.4,95,210,88c-.69-3.51-7.79-3.21-18.59-1.11-2.6.5-5.31,1.16-8,1.83l-3.68,7.46c-6.91,14.44-11.09,31.87-11.54,33.72-.75,3.11-7.05,4.74-9.39,5.2-1.56.3-6,1-6.4-.92s8.39-20.81,20.23-42.56c-5,1.51-10.83,3.32-11.09,3.37-1,.2-1.4-.94-1.4-.94-.64-3.26,4.33-9,7.23-10.73.94-.72,5.73-1.78,11.57-3l1.41-2.44c15.54-27.06,33.68-53.95,46-56.35,0,0,1.27-.39,3-.72,3.51-.68,9.11-1.09,9.82,2.55.32,1.69-3.66,13.14-9.25,35.83-4.92,20.54-12.26,55.06-12.63,65.67,0,0,.2,1-1.88,1.44C210.89,127.14,203.63,123.15,203.08,120.28Zm15.25-75.76c-.23-1.17-1.26-1.65-2.57-1.39C210.3,44.19,198.93,60.72,189,78.32l14.24-2.5C214.79,73.57,219.14,48.69,218.33,44.52Zm1-25.87c-2.87.56-5.12-.62-5.55-2.83-.66-3.39,2.91-8,7.72-8.93,2.73-.53,5.09.49,5.52,2.71C227.7,12.85,224.46,17.67,219.38,18.65Zm30.73-6c-2.73.53-5.12-.63-5.55-2.84-.66-3.38,2.91-8,7.72-8.92,2.73-.54,5.09.49,5.52,2.71C258.44,6.88,255.31,11.67,250.11,12.68Zm-15.38,3c-2.73.53-5.12-.63-5.55-2.84-.66-3.38,2.91-8,7.72-8.92,2.73-.54,5.09.49,5.52,2.7C243.06,9.87,239.93,14.66,234.73,15.67Z"/><path d="M236.81,120.61c-4.21,8.25-20,60.48-22.39,76.61a2.22,2.22,0,0,1-1.77,2c-2.87.56-8.42-3-9.3-7.51-2-10.29,33.78-101.38,44-135.65,0,0,.63-5.79,9.87-7.59.78-.15,2.78-.27,3.06,1.16.35,1.82-5.14,11.8-4.58,14.66a.93.93,0,0,0,1.25.85c2.34-.46,6.83-8,16.19-9.77,2.74-.53,7.12.5,8.52,7.66,4.09,21.08-12.28,50.07-38.31,55.13C242.83,118.23,237.49,119.27,236.81,120.61Zm29-51.69c-13.53,2.63-24.13,34.27-23.8,36,.48,2.47,3.85,3.84,7.24,3.18,11.45-2.22,22.08-25.36,20.08-35.64C268.83,70,267.22,68.64,265.79,68.92Z"/><path d="M271.45,192.35c-3.13.61-6.05-1.93-7.37-8.7-4.55-23.43,20.29-68.64,36.17-71.72,1.17-.23,2,0,2.15.66s-.55,1.32-1.26,1.86c-8.66,6.82-26.1,39.38-23,55.52.1.52.63,3.26,3,2.8C291,170.85,307,121,312.93,99.33c0,0,2.86-10.28,2.53-12-.23-1.17-.51-1.92-1.42-1.75a4.17,4.17,0,0,0-2.35,1.81c-6.94,8.77-14,15.68-20.22,16.89-2.6.51-6,.23-7.12-5.37-1.57-8.06,5.61-32.28,13.37-43.78,1.89-2.81,6.08-4.84,8.3-5.27,1.82-.35,3.9-.76,4.16.55.35,1.82-12.87,23.43-11,33.19.46,2.34,1.39,3,3.34,2.6C308.66,85,321.86,68.15,329,48.54c.32-1.14,2-5.24,9.51-6.71,1.29-.25,3.92-.63,4.2.8a2.08,2.08,0,0,1-.19,1.12s-8.57,23.27-18,53.33C312.52,135.47,291.88,188.38,271.45,192.35Z"/><path d="M372.59,92.06a1.74,1.74,0,0,1,.11-.83c1.84-4.41,13.28-33.11,11.87-40.4A2.17,2.17,0,0,0,382,48.9C370.83,51.07,353.84,79,349.65,88c-1.89,4.15-6.66,5.34-8.22,5.65-3,.58-3.61-.52-3.71-1-.76-3.9,15.18-48.33,20.74-51.71a13,13,0,0,1,5.74-2.46c1.56-.3,3.17-.34,3.37.69.53,2.74-4.47,10.33-3.94,13.06a1.41,1.41,0,0,0,1.5.79,2.18,2.18,0,0,0,1.2-.77c7.51-8.62,17.52-18.94,27.81-20.94,1.55-.3,4.91-.42,5.9,4.66,1.26,6.51-10.2,54.52-23.48,57.1C373.57,93.62,372.74,92.84,372.59,92.06Z"/><path class="cls-10" d="M199.4,121c-1.54-7.93,8.33-25.25,7-32.28-.68-3.51-7.78-3.21-18.58-1.11-2.61.51-5.32,1.17-8,1.83l-3.68,7.47c-6.92,14.44-11.09,31.87-11.55,33.71-.74,3.11-7.05,4.75-9.39,5.2-1.55.3-6,1-6.39-.92s8.38-20.81,20.23-42.56c-5,1.51-10.84,3.32-11.1,3.38-1,.2-1.4-.95-1.4-.95-.63-3.25,4.34-9,7.24-10.72.94-.73,5.73-1.79,11.56-3.06l1.41-2.44c15.55-27.06,33.68-53.95,46.05-56.35,0,0,1.27-.38,3-.71,3.51-.69,9.1-1.1,9.81,2.55.33,1.69-3.66,13.13-9.24,35.83-4.92,20.54-12.26,55.05-12.63,65.66,0,0,.2,1-1.88,1.44C207.22,127.85,200,123.86,199.4,121Zm15.25-75.76c-.22-1.17-1.26-1.64-2.56-1.39C206.62,44.9,195.25,61.43,185.3,79l14.24-2.5C211.12,74.28,215.46,49.4,214.65,45.23Zm1.06-25.86c-2.87.56-5.12-.63-5.55-2.84-.66-3.38,2.9-8,7.71-8.93,2.74-.53,5.1.5,5.53,2.71C224,13.57,220.78,18.38,215.71,19.37Zm30.73-6c-2.74.54-5.12-.62-5.55-2.83-.66-3.39,2.9-8,7.71-8.93,2.74-.53,5.1.49,5.53,2.71C254.76,7.59,251.64,12.38,246.44,13.39Zm-15.38,3c-2.74.54-5.12-.62-5.55-2.83-.66-3.39,2.9-8,7.71-8.93,2.74-.53,5.1.49,5.53,2.71C239.38,10.58,236.26,15.37,231.06,16.38Z"/><path class="cls-10" d="M233.13,121.33c-4.2,8.24-20,60.47-22.38,76.6a2.22,2.22,0,0,1-1.78,2c-2.86.56-8.41-3-9.29-7.51-2-10.28,33.77-101.38,44-135.65,0,0,.63-5.79,9.87-7.58.79-.16,2.79-.28,3.07,1.15C257,52.14,251.47,62.12,252,65a.92.92,0,0,0,1.24.84c2.35-.46,6.83-7.95,16.2-9.77,2.73-.53,7.12.51,8.51,7.67,4.1,21.08-12.28,50.06-38.31,55.12C239.15,118.94,233.82,120,233.13,121.33Zm29-51.69c-13.54,2.63-24.14,34.27-23.81,36,.48,2.47,3.86,3.84,7.24,3.18,11.45-2.22,22.08-25.36,20.08-35.64C265.15,70.67,263.55,69.36,262.12,69.64Z"/><path class="cls-10" d="M267.77,193.06c-3.12.61-6-1.93-7.36-8.7-4.55-23.42,20.29-68.63,36.17-71.72,1.17-.23,2,0,2.15.67s-.55,1.32-1.26,1.86c-8.67,6.82-26.11,39.38-23,55.52.1.52.63,3.25,3,2.79,9.9-1.92,25.86-51.75,31.78-73.43,0,0,2.87-10.29,2.54-12-.23-1.17-.51-1.92-1.42-1.74a4.13,4.13,0,0,0-2.35,1.8c-6.94,8.78-14,15.68-20.22,16.9-2.6.5-6,.22-7.12-5.37-1.57-8.07,5.61-32.29,13.37-43.79,1.88-2.8,6.08-4.83,8.29-5.26,1.83-.36,3.91-.76,4.16.54.36,1.82-12.87,23.44-11,33.2.45,2.34,1.39,3,3.34,2.59,6.12-1.19,19.31-18.07,26.44-37.69.32-1.14,1.95-5.24,9.5-6.71,1.3-.25,3.93-.62,4.21.81a2,2,0,0,1-.19,1.11s-8.58,23.28-18,53.34C308.85,136.19,288.21,189.09,267.77,193.06Z"/><path class="cls-10" d="M368.92,92.77a1.62,1.62,0,0,1,.11-.83c1.84-4.41,13.28-33.11,11.86-40.39a2.17,2.17,0,0,0-2.54-1.94C367.16,51.79,350.16,79.67,346,88.72c-1.9,4.15-6.66,5.35-8.22,5.65-3,.58-3.61-.51-3.71-1-.76-3.91,15.18-48.33,20.74-51.71a12.87,12.87,0,0,1,5.73-2.46c1.56-.31,3.17-.35,3.37.69.54,2.73-4.47,10.32-3.93,13.06a1.4,1.4,0,0,0,1.5.78,2.08,2.08,0,0,0,1.2-.77C370.17,44.31,380.18,34,390.46,32c1.56-.3,4.92-.41,5.9,4.66,1.27,6.52-10.2,54.52-23.47,57.11C369.89,94.34,369.07,93.55,368.92,92.77Z"/></g></svg>