<?xml version="1.0" encoding="utf-8"?>
<!-- Generator: Adobe Illustrator 25.2.0, SVG Export Plug-In . SVG Version: 6.00 Build 0)  -->
<svg version="1.1" id="Layer_1" xmlns="http://www.w3.org/2000/svg" xmlns:xlink="http://www.w3.org/1999/xlink" x="0px" y="0px"
	 viewBox="0 0 826.8 807.1" style="enable-background:new 0 0 826.8 807.1;" xml:space="preserve">
<style type="text/css">
	.st0{clip-path:url(#SVGID_2_);}
	.st1{clip-path:url(#SVGID_4_);}
	.st2{clip-path:url(#SVGID_6_);}
	.st3{opacity:0.65;}
	.st4{clip-path:url(#SVGID_8_);}
	.st5{clip-path:url(#SVGID_10_);}
	.st6{fill:#FFFFFF;}
</style>
<g>
	<g id="Layer_2_1_">
		<g id="Layer_1-2">
			<g id="Artwork_3">
				<g>
					<defs>
						
							<rect id="SVGID_1_" x="78.4" y="12.2" transform="matrix(0.9999 -1.710339e-02 1.710339e-02 0.9999 -5.5138 7.6071)" width="727.3" height="627.9"/>
					</defs>
					<clipPath id="SVGID_2_">
						<use xlink:href="#SVGID_1_"  style="overflow:visible;"/>
					</clipPath>
					<g class="st0">
						<g>
							<defs>
								
									<rect id="SVGID_3_" x="78.4" y="12.2" transform="matrix(0.9999 -1.710339e-02 1.710339e-02 0.9999 -5.5138 7.6071)" width="727.3" height="627.9"/>
							</defs>
							<clipPath id="SVGID_4_">
								<use xlink:href="#SVGID_3_"  style="overflow:visible;"/>
							</clipPath>
							<g class="st1">
								<g>
									<defs>
										
											<rect id="SVGID_5_" x="78.4" y="12.2" transform="matrix(0.9999 -1.710339e-02 1.710339e-02 0.9999 -5.5138 7.6071)" width="727.3" height="627.9"/>
									</defs>
									<clipPath id="SVGID_6_">
										<use xlink:href="#SVGID_5_"  style="overflow:visible;"/>
									</clipPath>
									<g class="st2">
										<g class="st3">
											<g>
												<defs>
													
														<rect id="SVGID_7_" x="72.5" y="6.4" transform="matrix(0.9999 -1.710339e-02 1.710339e-02 0.9999 -5.5935 7.6917)" width="748.8" height="648.9"/>
												</defs>
												<clipPath id="SVGID_8_">
													<use xlink:href="#SVGID_7_"  style="overflow:visible;"/>
												</clipPath>
												<g class="st4">
													<g>
														<defs>
															
																<rect id="SVGID_9_" x="72.5" y="6.4" transform="matrix(0.9999 -1.710339e-02 1.710339e-02 0.9999 -5.5935 7.6917)" width="748.8" height="648.9"/>
														</defs>
														<clipPath id="SVGID_10_">
															<use xlink:href="#SVGID_9_"  style="overflow:visible;"/>
														</clipPath>
														<g class="st5">
															
																<image style="overflow:visible;enable-background:new    ;" width="1095" height="949" xlink:href="DE16474CC3FDBF97.png"  transform="matrix(0.6799 -1.163031e-02 1.163031e-02 0.6799 67.02 12.84)">
															</image>
														</g>
													</g>
												</g>
											</g>
										</g>
										<path class="st6" d="M404.1,104l-13.2-91L74.2,89.3l4.8,64.7L404.1,104z M296.5,58.8c10.7-1.5,20.7,6,22.2,16.7
											c1.5,10.5-5.6,20.3-16.1,22.1c-10.7,1.9-20.9-5.3-22.7-16s5.3-20.9,16-22.7C296.1,58.9,296.3,58.9,296.5,58.8 M234.9,68.5
											c10.7-1.7,20.8,5.7,22.4,16.4c1.7,10.7-5.7,20.8-16.4,22.4c-10.7,1.7-20.7-5.6-22.4-16.3c-1.9-10.5,5.2-20.5,15.7-22.4
											C234.4,68.6,234.7,68.5,234.9,68.5 M171.7,78.4c10.7-1.7,20.8,5.6,22.4,16.4s-5.6,20.8-16.4,22.4
											c-10.7,1.7-20.8-5.6-22.4-16.4c-1.8-10.5,5.2-20.5,15.7-22.3C171.2,78.5,171.4,78.5,171.7,78.4"/>
										<path class="st6" d="M223.7,333.2c-3.9,8-5.7,15.2-5.6,21.4c0.1,6.1,1.1,12.1,2.9,17.9c1.8,5.7,3.7,9.5,5.7,11.4
											c34.1-6,56-24.2,65.7-54.5h-22.6C251,329.8,235.7,331.1,223.7,333.2"/>
										<path class="st6" d="M417.5,283.4l-5.8-132.7L96.3,170l-1.2,33.5l-3,274.9l355.1,19.8L417.5,283.4z M356.4,304.5l-9.9,118
											l-42.2,4.6l-7.5-61.8l-3.4,0.1c-9.3,20.7-22.4,36.9-39.3,48.7c-16.9,11.8-36.4,17.9-58.6,18.3c-3.6,0.1-7.1,0-10.7-0.2
											c-9.8-6.4-17.7-16-23.8-28.9c-6-12.6-9.2-26.3-9.4-40.2c-0.3-18.2,6.4-31.6,20-40c13.6-8.5,39-13.1,76-13.7
											c14.3-0.2,28.6,0.6,42.7,2.3l-1-9.4c-1.3-11.3-6.9-20.3-16.7-26.8c-9.8-6.6-22.2-9.7-37.3-9.4c-15.1,0.3-30.1,5.2-45,14.9
											l-19.9-61.6c24.3-10.4,52.1-15.8,83.4-16.4s56.2,6.1,74.6,19.9c18.5,13.8,27.9,35.6,28.5,65.5
											C357.2,293.7,357,299.1,356.4,304.5"/>
										<path class="st6" d="M433.7,78.1l82.3-1.4l0.6,33.9c12-26.5,33-40,62.9-40.5c34.6-0.8,66.7,17.6,83.7,47.7
											c8.7,15.2,13.2,32.3,13.6,51.3c0.3,19-3.7,36.2-12.2,51.7c-8,15.1-20,27.7-34.5,36.7c-14,8.8-30.2,13.6-46.8,13.9
											c-29.6,0.5-51.2-12.3-64.6-38.3l1.6,95.5l-82,17L433.7,78.1z M584.4,198c7.4-7.9,11-17.1,10.8-27.5
											c0-10.4-4.3-20.4-12-27.5c-7.8-7.4-16.9-11-27.3-10.8c-10.2,0-20,4.2-27.1,11.6c-7.4,7.5-11,16.4-10.8,26.5v1.6
											c0.3,21.4,17.9,38.5,39.3,38.3C567.6,210.1,577.5,205.7,584.4,198"/>
										<path class="st6" d="M518.8,339.9L445,640.1l291-22l69.3-311.9L518.8,339.9z M712.1,361l-41.3,146.5l-13,41.5
											c-5.3,14.4-10.1,24.2-14.3,29.3c-4.3,5.1-10.5,8.7-14.2,10.7s-9.6,3.4-13.8,3.8c-7.8,0.9-14.6-0.5-20.3-4.2
											s-8.9-8.5-9.6-14.4c-0.7-5.9,0.1-10.3,2.4-13.3c1.8-2.5,4.1-4.7,6.8-6.4c2.3-1.3,5.6-2.2,10.1-2.7
											c4.4-0.5,8.9,0.8,12.2,3.8c3.6,3,5.7,6.6,6.2,10.7c0.5,4-0.3,8-2.3,11.4c3.6-1,7-4.3,10.2-9.8s6.7-13.8,10.6-24.9
											l9.6-33.7l-83.1-132.2l-15.5,1.8l-1.3-11.3l78.1-9l1.3,11.3l-20.1,2.3l55.2,94.4l27.7-104l-25.4,2.9l-1.3-11.3l54.3-6.3
											l1.3,11.3L712.1,361z"/>
									</g>
								</g>
							</g>
						</g>
					</g>
				</g>
			</g>
		</g>
	</g>
</g>
<g>
	<g>
		
			<image style="overflow:visible;opacity:0.21;" width="121" height="150" xlink:href="DE16474CC3FDBF95.png"  transform="matrix(1 0 0 1 42 516.1)">
		</image>
		<g>
			<path class="st6" d="M109.2,524.4l25.6,23.5l5.6,55.1c-0.6,1-1.4,2.4-2.4,4.2c-1,1.8-3.1,4.8-6,9.3c-3,4.4-5.8,8.4-8.5,11.9
				c-2.7,3.5-5.8,6.8-9.1,9.9c-3.4,3.1-6.2,4.8-8.7,5.2c-4.2,0.8-9,0.2-14.6-1.8c-5.6-2-10.9-4.8-15.8-8.3c-5-3.5-9.5-7.6-13.5-12.1
				c-4.1-4.5-6.9-8.8-8.4-12.8c-1.3-3.8-2.2-8.5-2.6-14.2c-0.4-5.7-0.4-12-0.2-18.7c0.3-6.8,0.7-13,1.2-18.9
				c0.5-5.8,1-10.7,1.4-14.6l0.8-5.8L109.2,524.4z M125.6,584.9l-0.2-1.8l-26.3,3.6l0.2,1.4l10.8-1.5l1.3,9.1
				c0.4,2.8,0.3,5.6-0.3,8.4c-0.6,2.6-1.5,4.7-2.7,6.3c-0.6,1.3-2,2.7-4.1,4.2c-1.5,0.9-3.2,1.5-5.2,1.8c-3.2,0.4-5.7,0.4-7.4-0.1
				c-2.2-0.7-4.1-1.9-5.8-3.4c-1.9-1.3-3.4-3.2-4.6-5.6c-1.1-1.5-2.2-4-3.4-7.5c-0.6-1.7-1.4-4.6-2.4-8.8c-0.5-2.2-1-5.4-1.6-9.7
				c-0.7-4.8-1-9.6-1.1-14.3c0-5,0.4-9.3,1.2-13c0.9-4,2.5-7.2,4.8-9.6c2.4-2.7,5.7-4.4,10-5c3.9-0.5,7-0.3,9,0.8
				c2.2,1.1,4.4,2.8,6.4,5.1c1.9,2.4,3.3,4.6,4.2,6.8c0.6,1.4,1.4,3.5,2.4,6.5l0.8-0.1l-3-21.5l-1.1,0.1c-0.6,1.1-1,1.7-1.3,1.9
				c-0.3,0.5-1.1,0.7-2.2,0.9c-0.8,0.1-1.8,0-3-0.2l-3.2-1c-1.6-0.6-2.9-0.9-4-0.9c-1.9-0.1-3.8-0.1-5.6,0.2
				c-4.5,0.6-8.1,2.1-11,4.5c-3.1,2.4-5.7,5.4-7.9,9.1c-0.7,0.9-1.5,2.3-2.4,4.2c-0.2,0.6-1,2.8-2.3,6.6c-0.4,2.2-0.9,5.1-1.4,8.8
				c-0.4,2.9-0.3,6.7,0.4,11.3c0.9,6.3,2.6,11.7,5.2,16.2c2.9,5.1,6,9,9.1,11.9c3.4,3.3,6.7,5.6,10.1,6.9c3.5,1.3,7.2,1.7,11.1,1.1
				c2-0.3,4.2-1,6.8-2.1c1.5-0.8,3-1.8,4.6-3.1c0.4-0.3,0.8-0.6,1.2-1c0.5-0.4,0.9-0.7,1.2-1c0.4-0.3,0.7-0.6,1-0.9
				c0.9-0.9,1.9-1.4,3-1.5c1.2-0.2,1.9-0.2,2,0c0.7,0.5,1.3,1,1.8,1.6l1.2-0.2l-3.4-24.5L125.6,584.9z"/>
		</g>
	</g>
	<g>
		
			<image style="overflow:visible;opacity:0.21;" width="107" height="111" xlink:href="DE16474CC3FDBF9B.png"  transform="matrix(1 0 0 1 138.6462 539.6899)">
		</image>
		<g>
			<path class="st6" d="M214.4,547.7l8.3,21.7l-4.9,58.5l-70.7-5.9l2.5-65.4L214.4,547.7z M191,613.5l13.1-5.7l-6.6-8.2l3-29.2
				l-10.9-7.7l-17.6,8.8l4.4,19.5l-6.4,2.1l-0.9,11.2l7.9,7.7l9.4-6.9L191,613.5z M179.3,589.7l1.3-17.9l8.5,3.9l-0.9,11.1
				L179.3,589.7z M186.6,601.5l-7.2-5.5l8.3-2.9L186.6,601.5z"/>
		</g>
	</g>
	<g>
		
			<image style="overflow:visible;opacity:0.21;" width="123" height="129" xlink:href="DE16474CC3FDBF9D.png"  transform="matrix(1 0 0 1 218 530.4054)">
		</image>
		<g>
			<path class="st6" d="M308.1,540.2l10.2,25.9l-5.9,71l-85.6-7.1l23.8-91L308.1,540.2z M299,620.3l3.5-41.9
				c0.8-9.4-0.7-17.1-4.6-22.9c-3.8-5.8-9.7-9-17.5-9.7c-7.9-0.7-14.2,1.6-18.9,6.6c-4.7,5.1-7.5,12.3-8.3,21.8l-3.5,41.9l6.2,0.5
				l2-24l36.9,3.1l-2,24L299,620.3z M279.8,552.9c6,0.5,10.4,3,13.2,7.3c2.8,4.4,3.8,10.2,3,17.4l-0.9,10.8l-36.7-3.1l0.9-10.8
				c0.6-7.3,2.7-12.9,6.2-16.7C269.1,554,273.8,552.4,279.8,552.9z"/>
		</g>
	</g>
	<g>
		
			<image style="overflow:visible;opacity:0.21;" width="120" height="131" xlink:href="DE16474CC3FDBF9F.png"  transform="matrix(1 0 0 1 393.466 635.2586)">
		</image>
		<g>
			<path class="st6" d="M489.4,646l1.9,27.8l-21.6,69.6l-67.8-21l21.2-78.4L489.4,646z M447.4,720.8l14.5-4.4l-4.1-11.2l11.4-34.7
				l-8.4-11.5l-19.9,7.2l-1.3,24.4l-6.9,1.3l-4.1,13.3l5.5,10.9l11.3-6.4L447.4,720.8z M442.8,689.8l6.4-21.3l7.3,6.4l-4.1,13.2
				L442.8,689.8z M446.5,705.4l-5.5-8.1l9-1.9L446.5,705.4z"/>
		</g>
	</g>
	<g>
		
			<image style="overflow:visible;opacity:0.21;" width="130" height="132" xlink:href="DE16474CC3FDBF9C.png"  transform="matrix(1 0 0 1 302 575.1)">
		</image>
		<g>
			<path class="st6" d="M409.1,626.9l-3.1,57.7l-95.6-8.6l22.6-92.3l59.5,8L409.1,626.9z M393.4,677.5c1.2,0.3,1.9-0.3,2.4-1.8
				l7.3-26.6l0.5-1.7c-3.7,0.9-9.5,2.2-17.4,3.9c-7.9,1.7-13.7,3-17.4,3.9l-0.1-0.5l10.9-39.7c0.2-0.8,0.7-1.1,1.4-0.9l5.4,1.5
				c0.8,0.2,1.3,0.2,1.7,0.1c0.4-0.1,0.7-0.6,0.8-1.3l2.1-7.6c0.3-1.2-0.2-1.9-1.6-2.3l-13.6-3.7l-33.8-9.3c-0.6-0.2-1.1-0.2-1.4,0
				c-0.3,0.2-0.6,0.6-0.8,1.3l-2.2,7.9c-0.1,0.5-0.1,1,0.1,1.3c0.2,0.3,0.5,0.5,0.9,0.4l5.8,1.6c0.5,0.1,0.9,0.3,1,0.6
				c0.1,0.2,0.1,0.6,0,1.2l-11.4,41.5c-0.1,0.5-0.3,0.9-0.6,1c-0.2,0.1-0.6,0.1-1.2,0l-5.8-1.6c-0.5-0.1-0.9-0.2-1.2,0
				c-0.2,0.1-0.4,0.5-0.6,1l-2.2,7.9c-0.4,1.5-0.1,2.5,1.1,2.8L393.4,677.5z"/>
		</g>
	</g>
</g>
</svg>
