<?xml version="1.0" encoding="utf-8"?>
<!-- Generator: Adobe Illustrator 22.1.0, SVG Export Plug-In . SVG Version: 6.00 Build 0)  -->
<svg version="1.1" opacity='0.15' id="Layer_1" xmlns="http://www.w3.org/2000/svg" xmlns:xlink="http://www.w3.org/1999/xlink" x="0px" y="0px"
	 viewBox="0 0 512 512" xml:space="preserve">
<g id="Layer_2_1_">
	<g id="XMLID_2_">
		<path id="XMLID_2152_" d="M170.7,130.5c-22.4,0-40.6,18.2-40.6,40.6s18.2,40.6,40.6,40.6s40.6-18.2,40.6-40.6
			C211.3,148.7,193.1,130.5,170.7,130.5z M170.7,190c-10.4,0-18.9-8.5-18.9-18.9s8.5-18.9,18.9-18.9s18.9,8.5,18.9,18.9
			C189.6,181.5,181.1,190,170.7,190z"/>
		<path id="XMLID_2149_" d="M213.4,2.5c-22.4,0-40.6,18.2-40.6,40.6s18.2,40.6,40.6,40.6S254,65.5,254,43.1S235.8,2.5,213.4,2.5z
			 M213.4,62c-10.4,0-18.9-8.5-18.9-18.9s8.5-18.9,18.9-18.9s18.9,8.5,18.9,18.9S223.9,62,213.4,62z"/>
		<path id="XMLID_2146_" d="M468.7,45c-22.4,0-40.6,18.2-40.6,40.6s18.2,40.6,40.6,40.6s40.6-18.2,40.6-40.6
			C509.3,63.2,491.1,45,468.7,45z M468.7,104.5c-10.4,0-18.9-8.5-18.9-18.9s8.5-18.9,18.9-18.9s18.9,8.5,18.9,18.9
			S479.2,104.5,468.7,104.5z"/>
		<path id="XMLID_2134_" d="M340.8,428.5c-22.4,0-40.6,18.2-40.6,40.6s18.2,40.6,40.6,40.6s40.6-18.2,40.6-40.6
			S363.3,428.5,340.8,428.5z M340.8,488c-10.4,0-18.9-8.5-18.9-18.9s8.5-18.9,18.9-18.9s18.9,8.5,18.9,18.9
			C359.8,479.6,351.3,488,340.8,488z"/>
		<path id="XMLID_2131_" d="M43,428.5c-22.4,0-40.6,18.2-40.6,40.6s18.2,40.6,40.6,40.6s40.6-18.2,40.6-40.6S65.4,428.5,43,428.5z
			 M43,488c-10.4,0-18.9-8.5-18.9-18.9s8.5-18.9,18.9-18.9s18.9,8.5,18.9,18.9C61.9,479.6,53.4,488,43,488z"/>
		<path id="XMLID_2128_" d="M255.6,343.3c-22.4,0-40.6,18.2-40.6,40.6s18.2,40.6,40.6,40.6s40.6-18.2,40.6-40.6
			C296.2,361.4,278,343.3,255.6,343.3z M255.6,402.8c-10.4,0-18.9-8.5-18.9-18.9s8.5-18.9,18.9-18.9s18.9,8.5,18.9,18.9
			S266,402.8,255.6,402.8z"/>
		<path id="XMLID_2041_" d="M85.4,300.7c-22.4,0-40.6,18.2-40.6,40.6s18.2,40.6,40.6,40.6s40.6-18.2,40.6-40.6
			C126,318.9,107.8,300.7,85.4,300.7z M85.4,360.2c-10.4,0-18.9-8.5-18.9-18.9s8.5-18.9,18.9-18.9s18.9,8.5,18.9,18.9
			C104.3,351.8,95.8,360.2,85.4,360.2z"/>
		<path id="XMLID_2038_" d="M234.7,173.2c-10.7,0-19.3,8.6-19.3,19.3s8.6,19.3,19.3,19.3s19.3-8.6,19.3-19.3
			C254,181.9,245.4,173.2,234.7,173.2z M234.7,201.5c-5,0-9-4-9-9s4-9,9-9s9,4,9,9S239.7,201.5,234.7,201.5z"/>
		<path id="XMLID_2035_" d="M64.2,44.8c-10.7,0-19.3,8.6-19.3,19.3s8.6,19.3,19.3,19.3s19.3-8.6,19.3-19.3
			C83.5,53.4,74.8,44.8,64.2,44.8z M64.2,73.1c-5,0-9-4-9-9s4-9,9-9s9,4,9,9C73.1,69.1,69.1,73.1,64.2,73.1z"/>
		<path id="XMLID_2032_" d="M21.6,2.1c-10.7,0-19.3,8.6-19.3,19.3s8.6,19.3,19.3,19.3s19.3-8.6,19.3-19.3S32.3,2.1,21.6,2.1z
			 M21.6,30.4c-5,0-9-4-9-9s4-9,9-9s9,4,9,9S26.6,30.4,21.6,30.4z"/>
		<path id="XMLID_2029_" d="M106.6,44.8c-10.7,0-19.3,8.6-19.3,19.3s8.6,19.3,19.3,19.3s19.3-8.6,19.3-19.3
			C125.9,53.4,117.2,44.8,106.6,44.8z M106.6,73.1c-5,0-9-4-9-9s4-9,9-9s9,4,9,9S111.5,73.1,106.6,73.1z"/>
		<path id="XMLID_2026_" d="M64.2,87.6c-10.7,0-19.3,8.6-19.3,19.3s8.6,19.3,19.3,19.3s19.3-8.6,19.3-19.3S74.8,87.6,64.2,87.6z
			 M64.2,115.9c-5,0-9-4-9-9s4-9,9-9s9,4,9,9C73.1,111.9,69.1,115.9,64.2,115.9z"/>
		<path id="XMLID_2023_" d="M106.6,87.6c-10.7,0-19.3,8.6-19.3,19.3s8.6,19.3,19.3,19.3s19.3-8.6,19.3-19.3S117.2,87.6,106.6,87.6z
			 M106.6,115.9c-5,0-9-4-9-9s4-9,9-9s9,4,9,9S111.5,115.9,106.6,115.9z"/>
		<path id="XMLID_2020_" d="M64.2,130.1c-10.7,0-19.3,8.6-19.3,19.3s8.6,19.3,19.3,19.3s19.3-8.6,19.3-19.3
			C83.5,138.8,74.8,130.1,64.2,130.1z M64.2,158.4c-5,0-9-4-9-9s4-9,9-9s9,4,9,9C73.1,154.4,69.1,158.4,64.2,158.4z"/>
		<path id="XMLID_2017_" d="M106.6,130.1c-10.7,0-19.3,8.6-19.3,19.3s8.6,19.3,19.3,19.3s19.3-8.6,19.3-19.3
			C125.9,138.8,117.2,130.1,106.6,130.1z M106.6,158.4c-5,0-9-4-9-9s4-9,9-9s9,4,9,9S111.5,158.4,106.6,158.4z"/>
		<path id="XMLID_2014_" d="M64.2,215.5c-10.7,0-19.3,8.6-19.3,19.3s8.6,19.3,19.3,19.3s19.3-8.6,19.3-19.3S74.8,215.5,64.2,215.5z
			 M64.2,243.8c-5,0-9-4-9-9s4-9,9-9s9,4,9,9C73.1,239.8,69.1,243.8,64.2,243.8z"/>
		<path id="XMLID_2011_" d="M149.1,44.8c-10.7,0-19.3,8.6-19.3,19.3s8.6,19.3,19.3,19.3s19.3-8.6,19.3-19.3
			C168.5,53.4,159.8,44.8,149.1,44.8z M149.1,73.1c-5,0-9-4-9-9s4-9,9-9s9,4,9,9S154.1,73.1,149.1,73.1z"/>
		<path id="XMLID_2008_" d="M149.1,87.6c-10.7,0-19.3,8.6-19.3,19.3s8.6,19.3,19.3,19.3s19.3-8.6,19.3-19.3S159.8,87.6,149.1,87.6z
			 M149.1,115.9c-5,0-9-4-9-9s4-9,9-9s9,4,9,9S154.1,115.9,149.1,115.9z"/>
		<path id="XMLID_2005_" d="M192.1,87.6c-10.7,0-19.3,8.6-19.3,19.3s8.6,19.3,19.3,19.3s19.3-8.6,19.3-19.3S202.8,87.6,192.1,87.6z
			 M192.1,115.9c-5,0-9-4-9-9s4-9,9-9s9,4,9,9S197.1,115.9,192.1,115.9z"/>
		<path id="XMLID_2002_" d="M234.7,87.6c-10.7,0-19.3,8.6-19.3,19.3s8.6,19.3,19.3,19.3s19.3-8.6,19.3-19.3S245.4,87.6,234.7,87.6z
			 M234.7,115.9c-5,0-9-4-9-9s4-9,9-9s9,4,9,9S239.7,115.9,234.7,115.9z"/>
		<path id="XMLID_1999_" d="M277.1,130.5c-10.7,0-19.3,8.6-19.3,19.3s8.6,19.3,19.3,19.3s19.3-8.6,19.3-19.3
			S287.8,130.5,277.1,130.5z M277.1,158.8c-5,0-9-4-9-9s4-9,9-9s9,4,9,9S282.1,158.8,277.1,158.8z"/>
		<path id="XMLID_1996_" d="M234.5,130.5c-10.7,0-19.3,8.6-19.3,19.3s8.6,19.3,19.3,19.3s19.3-8.6,19.3-19.3
			S245.2,130.5,234.5,130.5z M234.5,158.8c-5,0-9-4-9-9s4-9,9-9s9,4,9,9S239.5,158.8,234.5,158.8z"/>
		<path id="XMLID_1993_" d="M319.8,130.5c-10.7,0-19.3,8.6-19.3,19.3s8.6,19.3,19.3,19.3s19.3-8.6,19.3-19.3
			C339.1,139.1,330.5,130.5,319.8,130.5z M319.8,158.8c-5,0-9-4-9-9s4-9,9-9s9,4,9,9S324.8,158.8,319.8,158.8z"/>
		<path id="XMLID_1990_" d="M404.9,130.5c-10.7,0-19.3,8.6-19.3,19.3s8.6,19.3,19.3,19.3c10.7,0,19.3-8.6,19.3-19.3
			C424.3,139.1,415.6,130.5,404.9,130.5z M404.9,158.8c-5,0-9-4-9-9s4-9,9-9s9,4,9,9S409.9,158.8,404.9,158.8z"/>
		<path id="XMLID_1984_" d="M490.2,130.5c-10.7,0-19.3,8.6-19.3,19.3s8.6,19.3,19.3,19.3c10.7,0,19.3-8.6,19.3-19.3
			S500.9,130.5,490.2,130.5z M490.2,158.8c-5,0-9-4-9-9s4-9,9-9s9,4,9,9S495.2,158.8,490.2,158.8z"/>
		<path id="XMLID_1951_" d="M447.5,173c-10.7,0-19.3,8.6-19.3,19.3s8.6,19.3,19.3,19.3s19.3-8.6,19.3-19.3S458.2,173,447.5,173z
			 M447.5,201.3c-5,0-9-4-9-9s4-9,9-9s9,4,9,9S452.5,201.3,447.5,201.3z"/>
		<path id="XMLID_1948_" d="M404.9,173c-10.7,0-19.3,8.6-19.3,19.3s8.6,19.3,19.3,19.3c10.7,0,19.3-8.6,19.3-19.3
			S415.6,173,404.9,173z M404.9,201.3c-5,0-9-4-9-9s4-9,9-9s9,4,9,9S409.9,201.3,404.9,201.3z"/>
		<path id="XMLID_1945_" d="M362.2,173c-10.7,0-19.3,8.6-19.3,19.3s8.6,19.3,19.3,19.3c10.7,0,19.3-8.6,19.3-19.3
			S372.8,173,362.2,173z M362.2,201.3c-5,0-9-4-9-9s4-9,9-9s9,4,9,9S367.1,201.3,362.2,201.3z"/>
		<path id="XMLID_1939_" d="M447.5,215.8c-10.7,0-19.3,8.6-19.3,19.3s8.6,19.3,19.3,19.3s19.3-8.6,19.3-19.3
			S458.2,215.8,447.5,215.8z M447.5,244.1c-5,0-9-4-9-9s4-9,9-9s9,4,9,9S452.5,244.1,447.5,244.1z"/>
		<path id="XMLID_1936_" d="M404.9,215.8c-10.7,0-19.3,8.6-19.3,19.3s8.6,19.3,19.3,19.3c10.7,0,19.3-8.6,19.3-19.3
			S415.6,215.8,404.9,215.8z M404.9,244.1c-5,0-9-4-9-9s4-9,9-9s9,4,9,9S409.9,244.1,404.9,244.1z"/>
		<path id="XMLID_1930_" d="M490.2,215.8c-10.7,0-19.3,8.6-19.3,19.3s8.6,19.3,19.3,19.3c10.7,0,19.3-8.6,19.3-19.3
			S500.9,215.8,490.2,215.8z M490.2,244.1c-5,0-9-4-9-9s4-9,9-9s9,4,9,9S495.2,244.1,490.2,244.1z"/>
		<path id="XMLID_1747_" d="M362.4,44.8c-10.7,0-19.3,8.6-19.3,19.3s8.6,19.3,19.3,19.3c10.7,0,19.3-8.6,19.3-19.3
			C381.7,53.4,373.1,44.8,362.4,44.8z M362.4,73.1c-5,0-9-4-9-9s4-9,9-9s9,4,9,9S367.4,73.1,362.4,73.1z"/>
		<path id="XMLID_1744_" d="M277.1,44.8c-10.7,0-19.3,8.6-19.3,19.3s8.6,19.3,19.3,19.3c10.7,0,19.3-8.6,19.3-19.3
			C296.4,53.4,287.8,44.8,277.1,44.8z M277.1,73.1c-5,0-9-4-9-9s4-9,9-9s9,4,9,9S282,73.1,277.1,73.1z"/>
		<path id="XMLID_1741_" d="M277.1,2.1c-10.7,0-19.3,8.6-19.3,19.3s8.6,19.3,19.3,19.3c10.7,0,19.3-8.6,19.3-19.3
			S287.8,2.1,277.1,2.1z M277.1,30.4c-5,0-9-4-9-9s4-9,9-9s9,4,9,9S282,30.4,277.1,30.4z"/>
		<path id="XMLID_1738_" d="M64.3,2.3C53.6,2.3,45,10.9,45,21.6s8.6,19.3,19.3,19.3s19.3-8.6,19.3-19.3C83.6,10.9,75,2.3,64.3,2.3z
			 M64.3,30.6c-5,0-9-4-9-9s4-9,9-9s9,4,9,9S69.3,30.6,64.3,30.6z"/>
		<path id="XMLID_1735_" d="M149.3,2.1c-10.7,0-19.3,8.6-19.3,19.3s8.6,19.3,19.3,19.3s19.3-8.6,19.3-19.3S160,2.1,149.3,2.1z
			 M149.3,30.4c-5,0-9-4-9-9s4-9,9-9s9,4,9,9S154.3,30.4,149.3,30.4z"/>
		<path id="XMLID_1732_" d="M319.6,2.1c-10.7,0-19.3,8.6-19.3,19.3s8.6,19.3,19.3,19.3c10.7,0,19.3-8.6,19.3-19.3
			S330.2,2.1,319.6,2.1z M319.6,30.4c-5,0-9-4-9-9s4-9,9-9s9,4,9,9S324.5,30.4,319.6,30.4z"/>
		<path id="XMLID_1726_" d="M362.4,2.1c-10.7,0-19.3,8.6-19.3,19.3s8.6,19.3,19.3,19.3c10.7,0,19.3-8.6,19.3-19.3
			S373.1,2.1,362.4,2.1z M362.4,30.4c-5,0-9-4-9-9s4-9,9-9s9,4,9,9S367.4,30.4,362.4,30.4z"/>
		<path id="XMLID_1720_" d="M447.6,2.3c-10.7,0-19.3,8.6-19.3,19.3s8.6,19.3,19.3,19.3s19.3-8.6,19.3-19.3S458.3,2.3,447.6,2.3z
			 M447.6,30.6c-5,0-9-4-9-9s4-9,9-9s9,4,9,9S452.6,30.6,447.6,30.6z"/>
		<path id="XMLID_1138_" d="M21.5,385.5c-10.7,0-19.3,8.6-19.3,19.3c0,10.7,8.6,19.3,19.3,19.3s19.3-8.6,19.3-19.3
			C40.8,394.2,32.2,385.5,21.5,385.5z M21.5,413.8c-5,0-9-4-9-9s4-9,9-9s9,4,9,9S26.5,413.8,21.5,413.8z"/>
		<path id="XMLID_1126_" d="M21.5,343c-10.7,0-19.3,8.6-19.3,19.3c0,10.7,8.6,19.3,19.3,19.3s19.3-8.6,19.3-19.3
			C40.8,351.7,32.2,343,21.5,343z M21.5,371.3c-5,0-9-4-9-9s4-9,9-9s9,4,9,9S26.5,371.3,21.5,371.3z"/>
		<path id="XMLID_1123_" d="M21.7,300.3c-10.7,0-19.3,8.6-19.3,19.3S11,339,21.7,339S41,330.4,41,319.7S32.4,300.3,21.7,300.3z
			 M21.7,328.6c-5,0-9-4-9-9s4-9,9-9s9,4,9,9S26.6,328.6,21.7,328.6z"/>
		<path id="XMLID_1120_" d="M21.5,257.8c-10.7,0-19.3,8.6-19.3,19.3c0,10.7,8.6,19.3,19.3,19.3s19.3-8.6,19.3-19.3
			S32.2,257.8,21.5,257.8z M21.5,286.1c-5,0-9-4-9-9s4-9,9-9s9,4,9,9S26.5,286.1,21.5,286.1z"/>
		<path id="XMLID_1117_" d="M21.5,215.3c-10.7,0-19.3,8.6-19.3,19.3s8.6,19.3,19.3,19.3s19.3-8.6,19.3-19.3S32.2,215.3,21.5,215.3z
			 M21.5,243.6c-5,0-9-4-9-9s4-9,9-9s9,4,9,9S26.5,243.6,21.5,243.6z"/>
		<path id="XMLID_1114_" d="M192,215.5c-10.7,0-19.3,8.6-19.3,19.3s8.6,19.3,19.3,19.3s19.3-8.6,19.3-19.3S202.6,215.5,192,215.5z
			 M192,243.8c-5,0-9-4-9-9s4-9,9-9s9,4,9,9S196.9,243.8,192,243.8z"/>
		<path id="XMLID_1111_" d="M192,258.2c-10.7,0-19.3,8.6-19.3,19.3c0,10.7,8.6,19.3,19.3,19.3s19.3-8.6,19.3-19.3
			C211.3,266.8,202.6,258.2,192,258.2z M192,286.5c-5,0-9-4-9-9s4-9,9-9s9,4,9,9S196.9,286.5,192,286.5z"/>
		<path id="XMLID_1108_" d="M234.4,258.2c-10.7,0-19.3,8.6-19.3,19.3c0,10.7,8.6,19.3,19.3,19.3s19.3-8.6,19.3-19.3
			C253.7,266.8,245.1,258.2,234.4,258.2z M234.4,286.5c-5,0-9-4-9-9s4-9,9-9s9,4,9,9S239.4,286.5,234.4,286.5z"/>
		<path id="XMLID_1105_" d="M277.1,258.2c-10.7,0-19.3,8.6-19.3,19.3c0,10.7,8.6,19.3,19.3,19.3c10.7,0,19.3-8.6,19.3-19.3
			C296.5,266.8,287.8,258.2,277.1,258.2z M277.1,286.5c-5,0-9-4-9-9s4-9,9-9s9,4,9,9S282.1,286.5,277.1,286.5z"/>
		<path id="XMLID_1102_" d="M319.6,258.2c-10.7,0-19.3,8.6-19.3,19.3c0,10.7,8.6,19.3,19.3,19.3c10.7,0,19.3-8.6,19.3-19.3
			C338.9,266.8,330.2,258.2,319.6,258.2z M319.6,286.5c-5,0-9-4-9-9s4-9,9-9s9,4,9,9S324.5,286.5,319.6,286.5z"/>
		<path id="XMLID_1099_" d="M319.8,300.8c-10.7,0-19.3,8.6-19.3,19.3s8.6,19.3,19.3,19.3c10.7,0,19.3-8.6,19.3-19.3
			S330.4,300.8,319.8,300.8z M319.8,329.1c-5,0-9-4-9-9s4-9,9-9s9,4,9,9C328.7,325.1,324.7,329.1,319.8,329.1z"/>
		<path id="XMLID_1096_" d="M362.2,300.8c-10.7,0-19.3,8.6-19.3,19.3s8.6,19.3,19.3,19.3c10.7,0,19.3-8.6,19.3-19.3
			S372.8,300.8,362.2,300.8z M362.2,329.1c-5,0-9-4-9-9s4-9,9-9s9,4,9,9S367.1,329.1,362.2,329.1z"/>
		<path id="XMLID_1093_" d="M447.7,300.8c-10.7,0-19.3,8.6-19.3,19.3s8.6,19.3,19.3,19.3s19.3-8.6,19.3-19.3
			S458.3,300.8,447.7,300.8z M447.7,329.1c-5,0-9-4-9-9s4-9,9-9s9,4,9,9S452.6,329.1,447.7,329.1z"/>
		<path id="XMLID_1090_" d="M490.1,300.8c-10.7,0-19.3,8.6-19.3,19.3s8.6,19.3,19.3,19.3s19.3-8.6,19.3-19.3
			S500.8,300.8,490.1,300.8z M490.1,329.1c-5,0-9-4-9-9s4-9,9-9s9,4,9,9S495.1,329.1,490.1,329.1z"/>
		<path id="XMLID_1087_" d="M362.2,343.5c-10.7,0-19.3,8.6-19.3,19.3c0,10.7,8.6,19.3,19.3,19.3s19.3-8.6,19.3-19.3
			S372.9,343.5,362.2,343.5z M362.2,371.8c-5,0-9-4-9-9s4-9,9-9s9,4,9,9S367.2,371.8,362.2,371.8z"/>
		<path id="XMLID_1084_" d="M405,343.5c-10.7,0-19.3,8.6-19.3,19.3c0,10.7,8.6,19.3,19.3,19.3s19.3-8.6,19.3-19.3
			S415.6,343.5,405,343.5z M405,371.8c-5,0-9-4-9-9s4-9,9-9s9,4,9,9S409.9,371.8,405,371.8z"/>
		<path id="XMLID_1081_" d="M447.4,343.5c-10.7,0-19.3,8.6-19.3,19.3c0,10.7,8.6,19.3,19.3,19.3c10.7,0,19.3-8.6,19.3-19.3
			C466.7,352.1,458.1,343.5,447.4,343.5z M447.4,371.8c-5,0-9-4-9-9s4-9,9-9s9,4,9,9S452.4,371.8,447.4,371.8z"/>
		<path id="XMLID_1078_" d="M490.1,385.4c-10.7,0-19.3,8.6-19.3,19.3c0,10.7,8.6,19.3,19.3,19.3s19.3-8.6,19.3-19.3
			S500.7,385.4,490.1,385.4z M490.1,413.7c-5,0-9-4-9-9s4-9,9-9s9,4,9,9S495,413.7,490.1,413.7z"/>
		<path id="XMLID_1075_" d="M490.1,428.7c-10.7,0-19.3,8.6-19.3,19.3c0,10.7,8.6,19.3,19.3,19.3s19.3-8.6,19.3-19.3
			C509.4,437.3,500.7,428.7,490.1,428.7z M490.1,457c-5,0-9-4-9-9s4-9,9-9s9,4,9,9C499.1,452.9,495,457,490.1,457z"/>
		<path id="XMLID_1072_" d="M490.1,343.2c-10.7,0-19.3,8.6-19.3,19.3c0,10.7,8.6,19.3,19.3,19.3s19.3-8.6,19.3-19.3
			C509.4,351.9,500.7,343.2,490.1,343.2z M490.1,371.5c-5,0-9-4-9-9s4-9,9-9s9,4,9,9S495,371.5,490.1,371.5z"/>
		<path id="XMLID_1060_" d="M65.1,258.2c-10.7,0-19.3,8.6-19.3,19.3c0,10.7,8.6,19.3,19.3,19.3s19.3-8.6,19.3-19.3
			C84.5,266.8,75.8,258.2,65.1,258.2z M65.1,286.5c-5,0-9-4-9-9s4-9,9-9s9,4,9,9S70.1,286.5,65.1,286.5z"/>
		<path id="XMLID_1057_" d="M107.6,258.2c-10.7,0-19.3,8.6-19.3,19.3c0,10.7,8.6,19.3,19.3,19.3s19.3-8.6,19.3-19.3
			C126.9,266.8,118.2,258.2,107.6,258.2z M107.6,286.5c-5,0-9-4-9-9s4-9,9-9s9,4,9,9S112.5,286.5,107.6,286.5z"/>
		<path id="XMLID_1054_" d="M149.3,215.3c-10.7,0-19.3,8.6-19.3,19.3s8.6,19.3,19.3,19.3s19.3-8.6,19.3-19.3S160,215.3,149.3,215.3z
			 M149.3,243.6c-5,0-9-4-9-9s4-9,9-9s9,4,9,9S154.3,243.6,149.3,243.6z"/>
		<path id="XMLID_1051_" d="M192,343.1c-10.7,0-19.3,8.6-19.3,19.3s8.6,19.3,19.3,19.3s19.3-8.6,19.3-19.3S202.6,343.1,192,343.1z
			 M192,371.4c-5,0-9-4-9-9s4-9,9-9s9,4,9,9S196.9,371.4,192,371.4z"/>
		<path id="XMLID_1048_" d="M149.3,342.9c-10.7,0-19.3,8.6-19.3,19.3c0,10.7,8.6,19.3,19.3,19.3s19.3-8.6,19.3-19.3
			C168.7,351.6,160,342.9,149.3,342.9z M149.3,371.2c-5,0-9-4-9-9s4-9,9-9s9,4,9,9S154.3,371.2,149.3,371.2z"/>
		<path id="XMLID_1045_" d="M234.7,428.7c-10.7,0-19.3,8.6-19.3,19.3c0,10.7,8.6,19.3,19.3,19.3S254,458.7,254,448
			C254.1,437.3,245.4,428.7,234.7,428.7z M234.7,457c-5,0-9-4-9-9s4-9,9-9s9,4,9,9C243.7,452.9,239.7,457,234.7,457z"/>
		<path id="XMLID_1042_" d="M234.7,471.2c-10.7,0-19.3,8.6-19.3,19.3s8.6,19.3,19.3,19.3s19.3-8.6,19.3-19.3
			S245.4,471.2,234.7,471.2z M234.7,499.6c-5,0-9-4-9-9s4-9,9-9s9,4,9,9C243.7,495.5,239.7,499.6,234.7,499.6z"/>
		<path id="XMLID_1039_" d="M277.3,471.2c-10.7,0-19.3,8.6-19.3,19.3s8.6,19.3,19.3,19.3c10.7,0,19.3-8.6,19.3-19.3
			S287.9,471.2,277.3,471.2z M277.3,499.6c-5,0-9-4-9-9s4-9,9-9s9,4,9,9C286.3,495.5,282.2,499.6,277.3,499.6z"/>
		<path id="XMLID_1036_" d="M149.3,471.2c-10.7,0-19.3,8.6-19.3,19.3s8.6,19.3,19.3,19.3s19.3-8.6,19.3-19.3S160,471.2,149.3,471.2z
			 M149.3,499.6c-5,0-9-4-9-9s4-9,9-9s9,4,9,9C158.3,495.5,154.3,499.6,149.3,499.6z"/>
		<path id="XMLID_1033_" d="M106.6,471.2c-10.7,0-19.3,8.6-19.3,19.3s8.6,19.3,19.3,19.3s19.3-8.6,19.3-19.3
			S117.2,471.2,106.6,471.2z M106.6,499.6c-5,0-9-4-9-9s4-9,9-9s9,4,9,9C115.6,495.5,111.5,499.6,106.6,499.6z"/>
		<path id="XMLID_1030_" d="M191.8,471.2c-10.7,0-19.3,8.6-19.3,19.3s8.6,19.3,19.3,19.3s19.3-8.6,19.3-19.3
			S202.5,471.2,191.8,471.2z M191.8,499.6c-5,0-9-4-9-9s4-9,9-9s9,4,9,9C200.8,495.5,196.8,499.6,191.8,499.6z"/>
		<path id="XMLID_874_" d="M404.8,428.5c-10.7,0-19.3,8.6-19.3,19.3s8.6,19.3,19.3,19.3c10.7,0,19.3-8.6,19.3-19.3
			S415.5,428.5,404.8,428.5z M404.8,456.8c-5,0-9-4-9-9s4-9,9-9s9,4,9,9C413.8,452.7,409.8,456.8,404.8,456.8z"/>
		<path id="XMLID_871_" d="M404.8,471.2c-10.7,0-19.3,8.6-19.3,19.3c0,10.7,8.6,19.3,19.3,19.3c10.7,0,19.3-8.6,19.3-19.3
			C424.1,479.8,415.5,471.2,404.8,471.2z M404.8,499.5c-5,0-9-4-9-9s4-9,9-9s9,4,9,9S409.8,499.5,404.8,499.5z"/>
		<path id="XMLID_496_" d="M149.3,385.7c-10.7,0-19.3,8.6-19.3,19.3c0,10.7,8.6,19.3,19.3,19.3s19.3-8.6,19.3-19.3
			C168.7,394.4,160,385.7,149.3,385.7z M149.3,414c-5,0-9-4-9-9s4-9,9-9s9,4,9,9S154.3,414,149.3,414z"/>
		<path id="XMLID_493_" d="M64.2,385.7c-10.7,0-19.3,8.6-19.3,19.3c0,10.7,8.6,19.3,19.3,19.3s19.3-8.6,19.3-19.3
			C83.5,394.4,74.8,385.7,64.2,385.7z M64.2,414c-5,0-9-4-9-9s4-9,9-9s9,4,9,9C73.1,410,69.1,414,64.2,414z"/>
		<path id="XMLID_490_" d="M21.5,44.8c-10.7,0-19.3,8.6-19.3,19.3s8.6,19.3,19.3,19.3s19.3-8.6,19.3-19.3
			C40.8,53.4,32.2,44.8,21.5,44.8z M21.5,73.1c-5,0-9-4-9-9s4-9,9-9s9,4,9,9S26.5,73.1,21.5,73.1z"/>
		<path id="XMLID_487_" d="M404.9,44.8c-10.7,0-19.3,8.6-19.3,19.3s8.6,19.3,19.3,19.3c10.7,0,19.3-8.6,19.3-19.3
			C424.3,53.4,415.6,44.8,404.9,44.8z M404.9,73.1c-5,0-9-4-9-9s4-9,9-9s9,4,9,9S409.9,73.1,404.9,73.1z"/>
		<path id="XMLID_484_" d="M325,88.3c-8.4-2.3-17.2,1.2-21.7,8.6s-3.5,16.9,2.5,23.2s15.4,7.9,23.1,3.8v2.4h10.3V107
			C339.1,98.3,333.4,90.7,325,88.3z M319.8,115.9c-5,0-9-4-9-9s4-9,9-9s9,4,9,9S324.8,115.9,319.8,115.9z"/>
		<path id="XMLID_483_" d="M339.1,79.9c0-3.4-2.7-6.1-6.1-6.1s-6.1,2.7-6.1,6.1s2.7,6.1,6.1,6.1S339.1,83.3,339.1,79.9"/>
		<path id="XMLID_482_" d="M325.9,79.9c0-3.4-2.7-6.1-6.1-6.1s-6.1,2.7-6.1,6.1s2.7,6.1,6.1,6.1S325.9,83.3,325.9,79.9"/>
		<path id="XMLID_481_" d="M312.7,79.9c0-3.4-2.7-6.1-6.1-6.1s-6.1,2.7-6.1,6.1s2.7,6.1,6.1,6.1S312.7,83.3,312.7,79.9"/>
		<path id="XMLID_478_" d="M378.9,97c-4.5-7.4-13.4-11-21.7-8.6c-8.4,2.3-14.1,9.9-14.1,18.6v19.5h10.3v-2.4
			c7.7,4,17.1,2.5,23.1-3.8C382.4,113.9,383.4,104.4,378.9,97z M362.4,115.9c-5,0-9-4-9-9s4-9,9-9s9,4,9,9S367.4,115.9,362.4,115.9z
			"/>
		<path id="XMLID_477_" d="M414.7,90.6c0,0-2.1-1.5-4.7-0.3s-3.1,3.5-3,4.6c0.1,1,0.6,3.9,2.7,4.8c0,0,5.4,3.2,3.5,10.1
			c-1.6,6-7.6,6.3-8.4,6.3s-6.8-0.3-8.4-6.3c-1.9-6.9,3.5-10.1,3.5-10.1c2.1-0.9,2.6-3.8,2.7-4.8s-0.4-3.4-3-4.6s-4.7,0.3-4.7,0.3
			c-6.6,4-10.1,11.5-9,19.2c1.1,7.6,6.4,13.8,13.9,15.9v2.2h5.1h5.1v-2.2c7.4-2.1,12.8-8.3,13.9-15.9
			C424.8,102.1,421.2,94.6,414.7,90.6z"/>
		<path id="XMLID_474_" d="M154.6,300.8c-8.4-2.3-17.2,1.2-21.7,8.6s-3.5,16.9,2.5,23.2c6,6.3,15.4,7.9,23.1,3.8v2.4h10.3v-19.5
			C168.8,310.8,163,303.2,154.6,300.8z M149.5,328.4c-5,0-9-4-9-9s4-9,9-9s9,4,9,9C158.4,324.4,154.4,328.4,149.5,328.4z"/>
		<path id="XMLID_473_" d="M168.8,292.4c0-3.4-2.7-6.1-6.1-6.1c-3.4,0-6.1,2.7-6.1,6.1s2.7,6.1,6.1,6.1
			C166,298.5,168.8,295.7,168.8,292.4"/>
		<path id="XMLID_472_" d="M155.6,292.4c0-3.4-2.7-6.1-6.1-6.1c-3.4,0-6.1,2.7-6.1,6.1s2.7,6.1,6.1,6.1
			C152.8,298.5,155.6,295.7,155.6,292.4"/>
		<path id="XMLID_471_" d="M142.3,292.4c0-3.4-2.7-6.1-6.1-6.1c-3.4,0-6.1,2.7-6.1,6.1s2.7,6.1,6.1,6.1S142.3,295.7,142.3,292.4"/>
		<path id="XMLID_468_" d="M208.6,309.5c-4.5-7.4-13.4-11-21.7-8.6c-8.4,2.3-14.1,9.9-14.1,18.6V339H183v-2.4
			c7.7,4,17.1,2.5,23.1-3.8C212,326.4,213,316.9,208.6,309.5z M192,328.4c-5,0-9-4-9-9s4-9,9-9s9,4,9,9S197,328.4,192,328.4z"/>
		<path id="XMLID_467_" d="M244.3,303.1c0,0-2.1-1.5-4.7-0.3c-2.6,1.2-3.1,3.5-3,4.6c0.1,1,0.6,3.9,2.7,4.8c0,0,5.4,3.2,3.5,10.1
			c-1.6,6-7.6,6.3-8.4,6.3c-0.8,0-6.8-0.3-8.4-6.3c-1.9-6.9,3.5-10.1,3.5-10.1c2.1-0.9,2.6-3.8,2.7-4.8c0.1-1-0.4-3.4-3-4.6
			s-4.7,0.3-4.7,0.3c-6.6,4-10.1,11.5-9,19.2c1.1,7.6,6.4,13.8,13.9,15.9v2.2h5.1h5.1v-2.2c7.4-2.1,12.8-8.3,13.9-15.9
			C254.4,314.6,250.9,307.1,244.3,303.1z"/>
		<path id="XMLID_464_" d="M324.8,386c-8.4-2.3-17.2,1.2-21.7,8.6s-3.5,16.9,2.5,23.2c6,6.3,15.4,7.9,23.1,3.8v2.4H339v-19.5
			C338.9,395.9,333.2,388.3,324.8,386z M319.6,413.6c-5,0-9-4-9-9s4-9,9-9s9,4,9,9S324.6,413.6,319.6,413.6z"/>
		<path id="XMLID_463_" d="M338.9,377.5c0-3.4-2.7-6.1-6.1-6.1s-6.1,2.7-6.1,6.1s2.7,6.1,6.1,6.1S338.9,380.9,338.9,377.5"/>
		<path id="XMLID_462_" d="M325.7,377.5c0-3.4-2.7-6.1-6.1-6.1s-6.1,2.7-6.1,6.1s2.7,6.1,6.1,6.1S325.7,380.9,325.7,377.5"/>
		<path id="XMLID_461_" d="M312.5,377.5c0-3.4-2.7-6.1-6.1-6.1s-6.1,2.7-6.1,6.1s2.7,6.1,6.1,6.1S312.5,380.9,312.5,377.5"/>
		<path id="XMLID_458_" d="M378.7,394.6c-4.5-7.4-13.4-11-21.7-8.6c-8.4,2.3-14.1,9.9-14.1,18.6v19.5h10.3v-2.4
			c7.7,4,17.1,2.5,23.1-3.8C382.2,411.5,383.2,402,378.7,394.6z M362.2,413.6c-5,0-9-4-9-9s4-9,9-9s9,4,9,9S367.1,413.6,362.2,413.6
			z"/>
		<path id="XMLID_457_" d="M414.5,388.2c0,0-2.1-1.5-4.7-0.3s-3.1,3.5-3,4.6c0.1,1,0.6,3.9,2.7,4.8c0,0,5.4,3.2,3.5,10.1
			c-1.6,6-7.6,6.3-8.4,6.3s-6.8-0.3-8.4-6.3c-1.9-6.9,3.5-10.1,3.5-10.1c2.1-0.9,2.6-3.8,2.7-4.8s-0.4-3.4-3-4.6s-4.7,0.3-4.7,0.3
			c-6.6,4-10.1,11.5-9,19.2c1.1,7.6,6.4,13.8,13.9,15.9v2.2h5.1h5.1v-2.2c7.4-2.1,12.8-8.3,13.9-15.9
			C424.6,399.8,421,392.2,414.5,388.2z"/>
		<path id="XMLID_454_" d="M367.5,258.4c-8.4-2.3-17.2,1.2-21.7,8.6s-3.5,16.9,2.5,23.2c6,6.3,15.4,7.9,23.1,3.8v2.4h10.3V277
			C381.6,268.3,375.9,260.7,367.5,258.4z M362.3,286c-5,0-9-4-9-9s4-9,9-9s9,4,9,9S367.3,286,362.3,286z"/>
		<path id="XMLID_453_" d="M381.6,250c0-3.4-2.7-6.1-6.1-6.1s-6.1,2.7-6.1,6.1c0,3.4,2.7,6.1,6.1,6.1S381.6,253.3,381.6,250"/>
		<path id="XMLID_452_" d="M368.4,250c0-3.4-2.7-6.1-6.1-6.1s-6.1,2.7-6.1,6.1c0,3.4,2.7,6.1,6.1,6.1S368.4,253.3,368.4,250"/>
		<path id="XMLID_451_" d="M355.2,250c0-3.4-2.7-6.1-6.1-6.1s-6.1,2.7-6.1,6.1c0,3.4,2.7,6.1,6.1,6.1S355.2,253.3,355.2,250"/>
		<path id="XMLID_448_" d="M421.4,267c-4.5-7.4-13.4-11-21.7-8.6c-8.4,2.3-14.1,9.9-14.1,18.6v19.5h10.3v-2.4
			c7.7,4,17.1,2.5,23.1-3.8C424.9,284,425.9,274.5,421.4,267z M404.9,286c-5,0-9-4-9-9s4-9,9-9s9,4,9,9S409.8,286,404.9,286z"/>
		<path id="XMLID_447_" d="M457.2,260.7c0,0-2.1-1.5-4.7-0.3s-3.1,3.5-3,4.6c0.1,1,0.6,3.9,2.7,4.8c0,0,5.4,3.2,3.5,10.1
			c-1.6,6-7.6,6.3-8.4,6.3s-6.8-0.3-8.4-6.3c-1.9-6.9,3.5-10.1,3.5-10.1c2.1-0.9,2.6-3.8,2.7-4.8s-0.4-3.4-3-4.6s-4.7,0.3-4.7,0.3
			c-6.6,4-10.1,11.5-9,19.2c1.1,7.6,6.4,13.8,13.9,15.9v2.2h5.1h5.1v-2.2c7.4-2.1,12.8-8.3,13.9-15.9
			C467.3,272.2,463.7,264.7,457.2,260.7z"/>
		<path id="XMLID_414_" d="M453.1,471.5c-8.4-2.3-17.2,1.2-21.7,8.6s-3.5,16.9,2.5,23.2c6,6.3,15.4,7.9,23.1,3.8v2.4h10.3V490
			C467.2,481.4,461.5,473.8,453.1,471.5z M447.9,499.1c-5,0-9-4-9-9s4-9,9-9s9,4,9,9S452.9,499.1,447.9,499.1z"/>
		<path id="XMLID_413_" d="M467.2,463c0-3.4-2.7-6.1-6.1-6.1s-6.1,2.7-6.1,6.1s2.7,6.1,6.1,6.1S467.2,466.4,467.2,463"/>
		<path id="XMLID_412_" d="M454,463c0-3.4-2.7-6.1-6.1-6.1s-6.1,2.7-6.1,6.1s2.7,6.1,6.1,6.1S454,466.4,454,463"/>
		<path id="XMLID_411_" d="M440.8,463c0-3.4-2.7-6.1-6.1-6.1s-6.1,2.7-6.1,6.1s2.7,6.1,6.1,6.1C438.1,469.1,440.8,466.4,440.8,463"
			/>
		<path id="XMLID_408_" d="M507,480.1c-4.5-7.4-13.4-11-21.7-8.6c-8.4,2.3-14.1,9.9-14.1,18.6v19.5h10.3v-2.4
			c7.7,4,17.1,2.5,23.1-3.8C510.5,497.1,511.5,487.6,507,480.1z M490.5,499.1c-5,0-9-4-9-9s4-9,9-9s9,4,9,9S495.4,499.1,490.5,499.1
			z"/>
		<path id="XMLID_72_" d="M111.9,429c-8.4-2.3-17.2,1.2-21.7,8.6s-3.5,16.9,2.5,23.2c6,6.3,15.4,7.9,23.1,3.8v2.4h10.3v-19.5
			C126.1,438.9,120.3,431.3,111.9,429z M106.8,456.6c-5,0-9-4-9-9s4-9,9-9s9,4,9,9C115.8,452.5,111.7,456.6,106.8,456.6z"/>
		<path id="XMLID_71_" d="M126.1,420.5c0-3.4-2.7-6.1-6.1-6.1s-6.1,2.7-6.1,6.1s2.7,6.1,6.1,6.1S126.1,423.9,126.1,420.5"/>
		<path id="XMLID_70_" d="M112.9,420.5c0-3.4-2.7-6.1-6.1-6.1s-6.1,2.7-6.1,6.1s2.7,6.1,6.1,6.1
			C110.1,426.6,112.9,423.9,112.9,420.5"/>
		<path id="XMLID_69_" d="M99.6,420.5c0-3.4-2.7-6.1-6.1-6.1s-6.1,2.7-6.1,6.1s2.7,6.1,6.1,6.1S99.6,423.9,99.6,420.5"/>
		<path id="XMLID_66_" d="M165.9,437.6c-4.5-7.4-13.4-11-21.7-8.6c-8.4,2.3-14.1,9.9-14.1,18.6v19.5h10.3v-2.4
			c7.7,4,17.1,2.5,23.1-3.8C169.3,454.5,170.3,445,165.9,437.6z M149.3,456.6c-5,0-9-4-9-9s4-9,9-9s9,4,9,9
			C158.3,452.5,154.3,456.6,149.3,456.6z"/>
		<path id="XMLID_65_" d="M201.6,431.2c0,0-2.1-1.5-4.7-0.3c-2.6,1.2-3.1,3.5-3,4.6c0.1,1,0.6,3.9,2.7,4.8c0,0,5.4,3.2,3.5,10.1
			c-1.6,6-7.6,6.3-8.4,6.3c-0.8,0-6.8-0.3-8.4-6.3c-1.9-6.9,3.5-10.1,3.5-10.1c2.1-0.9,2.6-3.8,2.7-4.8c0.1-1-0.4-3.4-3-4.6
			s-4.7,0.3-4.7,0.3c-6.6,4-10.1,11.5-9,19.2c1.1,7.6,6.4,13.8,13.9,15.9v2.2h5.1h5.1v-2.2c7.4-2.1,12.8-8.3,13.9-15.9
			C211.7,442.8,208.2,435.2,201.6,431.2z"/>
		<path id="XMLID_10_" d="M26.8,173.3c-8.4-2.3-17.2,1.2-21.7,8.6c-4.5,7.4-3.5,16.9,2.5,23.2s15.4,7.9,23.1,3.8v2.4H41v-19.5
			C40.9,183.2,35.1,175.6,26.8,173.3z M21.6,200.9c-5,0-9-4-9-9s4-9,9-9s9,4,9,9S26.5,200.9,21.6,200.9z"/>
		<path id="XMLID_9_" d="M40.9,164.8c0-3.4-2.7-6.1-6.1-6.1s-6.1,2.7-6.1,6.1c0,3.4,2.7,6.1,6.1,6.1
			C38.2,170.9,40.9,168.2,40.9,164.8"/>
		<path id="XMLID_8_" d="M27.7,164.8c0-3.4-2.7-6.1-6.1-6.1s-6.1,2.7-6.1,6.1c0,3.4,2.7,6.1,6.1,6.1S27.7,168.2,27.7,164.8"/>
		<path id="XMLID_7_" d="M14.5,164.8c0-3.4-2.7-6.1-6.1-6.1s-6.1,2.7-6.1,6.1c0,3.4,2.7,6.1,6.1,6.1S14.5,168.2,14.5,164.8"/>
		<path id="XMLID_4_" d="M80.7,181.9c-4.5-7.4-13.4-11-21.7-8.6c-8.4,2.3-14.1,9.9-14.1,18.6v19.5h10.3V209c7.7,4,17.1,2.5,23.1-3.8
			C84.1,198.9,85.2,189.4,80.7,181.9z M64.1,200.9c-5,0-9-4-9-9s4-9,9-9s9,4,9,9S69.1,200.9,64.1,200.9z"/>
		<path id="XMLID_3_" d="M116.4,175.5c0,0-2.1-1.5-4.7-0.3s-3.1,3.5-3,4.6c0.1,1,0.6,3.9,2.7,4.8c0,0,5.4,3.2,3.5,10.1
			c-1.6,6-7.6,6.3-8.4,6.3s-6.8-0.3-8.4-6.3c-1.9-6.9,3.5-10.1,3.5-10.1c2.1-0.9,2.6-3.8,2.7-4.8s-0.4-3.4-3-4.6
			c-2.6-1.2-4.7,0.3-4.7,0.3c-6.6,4-10.1,11.5-9,19.2c1.1,7.6,6.4,13.8,13.9,15.9v2.2h5.1h5.1v-2.2c7.4-2.1,12.8-8.3,13.9-15.9
			C126.5,187.1,123,179.6,116.4,175.5z"/>
	</g>
</g>
</svg>
