<svg version="1" xmlns="http://www.w3.org/2000/svg" width="1432" height="1432" viewBox="0 0 1074.000000 1074.000000"><path d="M279 1.6c-22.9 4.8-45 26.5-49.6 48.8-5.3 25.6 1.5 48.2 19.6 64.9 6.3 5.8 19.6 13.7 23.1 13.7.9 0 1.9.3 2.3.7.7.7 1.1.8 8.1 2 7.5 1.3 25.7.5 28.4-1.1.4-.3 2-.7 3.6-1 1.6-.3 5.3-1.7 8.4-3.2 16.5-8 29.9-23.4 35.5-40.8 2.7-8.3 2.8-27.4.3-37.1-6.1-22.8-28.2-43.1-51.7-47.3-7.5-1.4-20.4-1.2-28 .4zM509.8.5c-.2.2-1.9.7-3.8 1-18.2 3-37.2 18-46 36.2-1.6 3.4-3.2 7.2-3.4 8.5-.3 1.3-.5 2.3-.6 2.3-.3 0-1.1 4-1.7 9-2.1 15.7 1.2 31.6 8.8 43.5 13.5 20.8 32.7 31.4 56.9 31.4 8.4 0 16.5-1 19-2.4 1-.5 1.9-.7 2.2-.5.7.8 15.7-7.2 20.5-11 9.7-7.7 20.9-23.8 22.7-32.5.3-1.4.8-3.6 1.2-5 1.9-7.3 1.1-27.4-1.3-34-.3-.8-.7-2-.8-2.6-1.2-5.4-10-18.7-16.7-25.5C563.1 15.3 550.1 6 548.6 6c-.2 0-1.5-.4-2.8-.9-1.3-.5-2.5-.8-2.8-.8-.3 0-1.4-.5-2.6-1.1-1.1-.6-3.4-1.4-5-1.8-3.2-.7-25-1.5-25.6-.9zM740.7.6c-.1.1-2.5.4-5.2.8-7.5.8-21.3 6-25.9 9.7-18 14.3-25.7 26.3-29.2 44.9-.7 4.2-.7 18.5.1 22 .3 1.4.8 3.8 1.1 5.5.9 5.3 5.7 15.9 9 20.4 11.4 14.9 23.1 23.2 38.5 27.1 9.8 2.5 30.5 2 38.3-1 1.2-.4 2.4-.8 2.9-.8.4-.1 3.4-1.5 6.7-3.3 7.1-3.8 17.9-12.5 21.1-17.1 1.3-1.8 2.9-3.9 3.6-4.7 2.9-2.9 8.8-16.4 10.1-22.9.8-4.4.8-23.5 0-27.7-4.2-20.6-21.1-40.7-40.6-48.4-5-2-6.6-2.4-14.2-3.7-3.5-.6-15.8-1.3-16.3-.8zM474.8 245.5c-.2.2-7.5.6-16.3.9-8.8.4-17.8.9-20 1.1-6.4.5-14.7 1.5-18.5 2-1.9.3-5.5.7-8 1-7.4.8-9.9 1.2-20.2 3.1-1.8.3-4.4.7-5.8.9-7.9 1.1-37 7.9-55 12.9-13 3.6-37.7 13-49.5 18.9-21.1 10.5-39.2 24.5-49.6 38.2-4.1 5.4-10.2 17.2-11.4 22-.4 1.6-1 4.1-1.3 5.5-.9 3.5-.8 24.7.1 29 5.4 25.2 23.5 45.8 47.3 54 25 8.6 54.8 4.4 72.9-10.3 10.3-8.4 16.5-17.6 24.5-36.4 2.3-5.4 5.3-12.3 6.7-15.3 1.4-3 2.6-6 2.8-6.5.1-.6 1.4-3.6 2.9-6.8 1.4-3.2 2.6-6 2.6-6.2 0-.6 5.2-12.1 8.8-19.5 10.6-22.1 30.6-42.4 52.7-53.8 5.5-2.8 15.5-7.1 18-7.6.6-.2 2.8-.8 5-1.4 2.2-.6 5.8-1.4 8-1.7 2.2-.4 5.8-1 8-1.5 4.4-1 35-.6 40.5.5 2.8.5 11.2 2.5 16.5 3.9.6.1 3.5 1.1 6.5 2.1 3 1.1 5.7 2 6 2 2.1.3 21 10.1 27 14 9.4 6.1 10.3 6.9 22.1 18.5 17.6 17.4 29.8 39.6 38.8 70.5 1.1 3.8 2.2 8.1 2.5 9.5.3 1.4.8 3.6 1.1 5 .3 1.4.8 4.1 1.1 6 .3 1.9.7 4.2.9 5 .2.8.7 3.7 1.1 6.5.3 2.7.8 5.9 1 7 .4 1.9 1.2 8.7 1.9 16.5.7 7.1 1.9 33.8 1.9 42.5 0 9.9-1.1 33-1.9 38.5-.2 1.9-.7 5.5-1 8-.6 4.7-1.1 7.9-2 12-.3 1.4-.8 3.8-1 5.4-.3 1.6-2 7-3.6 12-8.6 25.3-24.7 44.5-53.5 63.3-8.1 5.2-30.5 17.1-37.9 20-1.7.6-5.2 2-8 3.2-6.2 2.5-33.5 11.9-37 12.7-.5.2-4.1 1.2-8 2.4-3.8 1.2-7.7 2.3-8.5 2.5-.8.2-5.5 1.6-10.5 3-4.9 1.4-9.9 2.8-11 3-1.1.3-5.1 1.4-9 2.5-3.8 1.2-7.8 2.3-8.8 2.5-1 .2-2.7.7-3.7 1-1 .3-2.8.8-3.9 1-3.2.7-4.9 1.2-15.6 4-5.5 1.5-11.8 3.1-14 3.6-5.8 1.3-5.9 1.4-7.2 2.2-.7.5-1.3.6-1.3.3s-1.8.1-4 .9-4 1.2-4 1c0-.3-1.2 0-2.7.6-1.6.6-3.7 1.3-4.8 1.5-4.2 1-5 1.3-5 1.4 0 .1-.7.3-1.5.5-6.7 1.3-41.3 12.7-55.5 18.2-32.6 12.7-59.2 29.9-81.2 52.5-7.8 7.9-10.8 11.3-17.1 19.3-5.8 7.3-22.3 36.5-20.6 36.5.4 0 .1.6-.5 1.3-1.1 1.4-7.8 21.2-8.6 25.7-.3 1.4-.7 3.6-1 5-.4 1.4-.8 3.8-1.1 5.5-.3 1.6-.7 4.1-1 5.5-2.7 14.9-2.7 54.5.2 68.5.3 1.6.7 3.9.8 5 .8 5.6 6 23 9.1 30.5 2 4.7 3.9 9.2 4.3 10 .3.8 2.1 4.2 4 7.5 17 29.8 42.4 53.3 75.2 69.9 5.8 2.9 10.8 5.4 11.2 5.5.4.1 2.7 1 5 2 3.8 1.6 14.4 5.4 15.8 5.6.3 0 3.7 1.1 7.5 2.3 3.9 1.2 8.1 2.3 9.5 2.6 1.4.2 3.2.7 4 1 .8.3 2.9.7 4.5 1 1.7.2 5.4.9 8.4 1.5s7.9 1.4 10.9 1.7c3.1.3 6.5.8 7.6 1 13.2 2.6 72.4 2.6 87.6-.1 1.4-.2 4.3-.6 6.5-.9 5.2-.7 9.4-1.4 12.5-2.1 1.4-.3 3.6-.7 5-1 2.3-.4 3.5-.7 8.8-1.9 1.5-.3 11.9-3.2 14.7-4 .6-.2 2.4-.6 4-1.1 1.7-.4 3.5-1 4-1.4.6-.3 1.9-.7 2.9-.8 1.1-.2 2.5-.8 3.1-1.3.6-.5 2-1.1 3.1-1.3 1-.2 3.3-1 4.9-1.7 1.7-.7 3.5-1.4 4.2-1.6 3.3-.6 27.8-13.6 35.8-18.8 14.3-9.4 46-33.7 54.7-41.9.7-.7 4.7-4.1 8.8-7.6 4.1-3.5 10.1-8.6 13.3-11.5 3.2-2.8 6.2-5.2 6.6-5.4.4-.1 1.4 1 2.1 2.5 2.1 4.1 16.9 26.8 22.1 33.8 13.6 18.5 24.8 29.6 43.5 43.2 5.4 4 26.4 14 35.9 17.2 12.1 3.9 15.9 4.9 26.4 6.7 1.8.3 4.3.7 5.5 1 10.1 1.9 51.5 2.7 63.6 1.1 3-.4 7.1-.9 9-1.1 3.1-.4 15-2.8 20.5-4.2 1.1-.3 3.1-.7 4.4-1 1.3-.3 3.7-1.2 5.2-2 1.6-.8 3.2-1.4 3.6-1.4 3.3 0 26.8-11.3 29.9-14.5.9-.8 2.1-1.5 2.9-1.5.7 0 1.5-.3 1.7-.8.2-.4 2.6-2.5 5.3-4.6 17.2-13.5 33.6-36.6 42.2-59.6 2.3-6.2 2.4-6.5.6-7.8-3-2.2-14.4-8.5-14.7-8.1-.2.2-3.2 4-6.7 8.5-24 30.4-37.2 39.2-63.9 42-7.5.8-20.7.8-25.2 0-2.1-.3-5.5-.9-7.5-1.2-2.1-.3-7.2-1.9-11.3-3.5-20.8-8.3-34.8-24.9-43.4-51.4-2.4-7.5-3.1-10.5-4.1-16.5-.2-1.4-.6-3.9-.9-5.5-.5-2.9-1.1-7.8-2.1-17.5-.5-5-1.2-14.1-2.1-30.5-.4-6.1-.8-106.4-.9-223-.3-217.1-.4-224.9-3.1-251.8-.5-5.6-.7-7-1.9-12.7-.2-1.4-.7-3.9-1-5.5-1.5-8.8-2-10.8-5.5-20-2-5.4-9.5-20.5-10.2-20.5-.4 0-.8-.6-.8-1.3 0-1.9-12-17.4-19.1-24.7-10.4-10.6-31.5-27-34.9-27-.5 0-1-.4-1-.8 0-1.4-26.9-14.8-40.4-20.2-11.7-4.6-37-13.6-41.1-14.5-1.1-.2-5.4-1.4-9.5-2.5-4.1-1.2-8.2-2.3-9-2.5-.8-.1-3.5-.8-6-1.5s-5.2-1.4-6-1.5c-.8-.2-3.5-.8-6-1.4-2.5-.5-5.6-1.2-7-1.5-1.4-.3-3.6-.8-5-1.1-1.4-.3-3.8-.7-5.5-1-1.6-.3-4.1-.8-5.5-1-4.9-1-7.5-1.5-11-2-2-.3-4.7-.7-6-1-1.3-.2-4.4-.7-6.9-1-2.5-.3-6.2-.7-8.1-1-3.5-.5-10.1-1.2-17.5-2-9.1-.9-49.1-2.5-49.7-2zm174.8 460c-.2 53.9-.6 100-.9 102.5-.5 4.7-1.7 18.4-2.2 23.5-.2 2.7-.8 7.1-1.9 16-.3 1.6-.7 4.3-1 6-.2 1.6-.7 4.8-1.1 7-.3 2.3-.8 5.2-1 6.5-.3 1.4-.7 3.6-1 5-1 5.3-1.4 7.2-1.9 8.8-.3.9-.7 2.8-1 4.2-.3 1.4-.7 3.5-1 4.8-.4 1.2-.8 3.1-1 4.2-2.2 9.8-12.3 37.9-15.4 42.7-.8 1.3-1.2 2.3-.9 2.3.8 0-10.1 19.8-14.7 26.5-17 25.1-41.9 46.8-68.2 59.6-5.6 2.7-10.4 4.9-10.7 4.9-.3 0-1.8.5-3.4 1.2-1.5.6-3 1.2-3.3 1.3-.3 0-3.1.9-6.2 1.8-12.4 3.7-22.9 5.1-38.8 5.1-15.4 0-22.8-1-34-4.5-6-1.9-21.2-8.4-23.5-10.1-.5-.4-4.6-3.4-9-6.6-14.9-10.9-30.8-30.7-39.1-48.8-2-4.3-3.6-8-3.5-8.2.1-.1-.6-1.6-1.4-3.2-.8-1.6-1.6-3.3-1.6-3.7-.1-.5-.3-1.3-.5-1.8-.7-2.1-4.2-17.2-4.8-20.5-.3-1.9-.8-4.6-1.1-6-2.7-13.7-2.2-47.3 1-64 .3-1.9.8-4.6 1-6 .3-1.4.9-4.5 1.6-7 1.1-4.8 1.9-7.9 2.2-9.5.2-.6.6-1.5.9-2.1.4-.6.9-2.1 1.2-3.5.6-3.1 3.5-10.7 7.1-18.9 15.8-35.4 44.5-68.4 81.3-93.3 8.3-5.7 35.1-21.9 40.7-24.7 1.7-.8 3.2-1.7 3.5-2 .3-.3 1.6-1.1 2.9-1.8 10.4-5.9 10.8-6.1 53.1-29 28-15.1 63.4-38.8 90.5-60.6l7-5.6.3 4.8c.2 2.6.1 48.8-.2 102.7z"/></svg>