<svg xmlns="http://www.w3.org/2000/svg" viewBox="0 0 1138.67 494.67"><defs><style>.a{fill:#231f20;}</style></defs><title>logo-2019</title><path class="a" d="M245.5,198.33a178.84,178.84,0,1,0,82.66,337.44V556h96.17V377.17A178.84,178.84,0,0,0,245.5,198.33Zm0,261.67a82.67,82.67,0,1,1,82.66-82.67A82.67,82.67,0,0,1,245.5,460Z" transform="translate(-66.66 -72.5)"/><path class="a" d="M636.5,198.5A178.83,178.83,0,0,0,457.67,377.17h0V556h96.17V535.94A178.84,178.84,0,1,0,636.5,198.5Zm0,261.67a82.67,82.67,0,1,1,82.66-82.67A82.67,82.67,0,0,1,636.5,460.17Z" transform="translate(-66.66 -72.5)"/><path class="a" d="M1205.33,377.33c0-88.1-60.78-135.82-79.2-148.25a46.53,46.53,0,0,0-5.14-3.27l-.09-.05a48.49,48.49,0,0,0-51,82.32,49,49,0,0,0,4.89,3c10.57,7.24,34.63,27.93,34.63,66.23,0,43.67-35.34,81.88-81,81.88s-83-37.1-83-81.93c0-34.51,24.82-58.07,36.24-67.09a48.5,48.5,0,0,0-48-84.28l-.1-.16S849,270.92,849,377.25c0,84.46,55,151.26,129.68,172v17.9H1075V549.66C1150.66,528.61,1205.33,457.76,1205.33,377.33Z" transform="translate(-66.66 -72.5)"/><circle class="a" cx="56.88" cy="56.87" r="56.87"/><circle class="a" cx="178.83" cy="56.87" r="56.87"/><circle class="a" cx="301.33" cy="56.87" r="56.87"/></svg>