<?xml version="1.0" encoding="utf-8"?>
<!-- Generator: Adobe Illustrator 23.0.1, SVG Export Plug-In . SVG Version: 6.00 Build 0)  -->
<svg version="1.1" id="Layer_1" xmlns="http://www.w3.org/2000/svg" xmlns:xlink="http://www.w3.org/1999/xlink" x="0px" y="0px"
	 viewBox="0 0 245.3 133.7" style="enable-background:new 0 0 245.3 133.7;" xml:space="preserve">
<style type="text/css">
	.st0{display:none;}
</style>
<g>
	<path class="st0" d="M15.8-10c2.2,0,4.1,0.8,5.6,2.3c1.5,1.5,2.3,3.4,2.3,5.6c0,2.1-0.8,4-2.3,5.5c-1.5,1.5-3.4,2.3-5.6,2.3
		c-2.2,0-4.1-0.8-5.6-2.3C8.7,1.9,7.9,0.1,7.9-2.1c0-2.2,0.8-4,2.3-5.6C11.7-9.2,13.6-10,15.8-10z"/>
	<path d="M72.8,91.3c-1.4,1.9-2.6,3.2-3.7,3.9c-1,0.6-2.5,1-4.3,1c-3.8,0-6.3-2.1-7.3-6.3c-0.5-2-0.7-5.8-0.7-11.3V45.7
		c0-4.2-0.2-7.2-0.7-8.9c-0.9-3.5-3.3-6.3-7.2-8.5c-2.7-1.5-6-2.7-9.9-3.6c-4-0.9-7.8-1.4-11.4-1.4c-3.3,0-6.6,0.3-10,1
		c-3.4,0.7-6.3,1.6-8.6,2.6c-4.3,2.1-6.4,4.6-6.4,7.6c0,2,0.7,3.7,2,5c1.4,1.3,3,2,5.1,2c3.1,0,5.2-1.4,6.4-4.2l2.2-5.1
		c0.9-2.2,2.4-3.9,4.3-5.1c1.9-1.2,4-1.9,6.5-1.9c2,0,3.9,0.4,5.8,1.3c1.9,0.9,3.4,2.1,4.6,3.5c2.6,3.2,3.9,8.2,3.9,15.2
		c0,3.2-0.4,5.8-1.1,7.6c-0.7,1.8-2,3.4-3.9,4.8c-1.7,1.2-3.7,2.3-6.2,3.2c-2.5,0.9-6.2,2-11.4,3.3c-4.4,1.1-7.7,2.2-10,3.3
		c-2.3,1.1-4.3,2.6-6.1,4.4C1.6,75.1,0,79.2,0,84.1c0,5.3,1.9,9.5,5.7,12.7c3.8,3.1,9,4.7,15.5,4.7c5.1,0,9.6-1.1,13.4-3.2
		c2-1.1,5-3.5,9-7c2,3.4,3.8,5.7,5.7,7.1c2.8,2.1,6.3,3.1,10.5,3.1c7.6,0,12.5-3.1,14.6-9.3L72.8,91.3z M43.5,71.1
		c0,7.5-0.9,13.2-2.7,17.2c-1.3,3-3.2,5.4-5.8,7.2c-2.6,1.8-5.3,2.7-8.2,2.7c-3.3,0-6-1.3-8.2-3.8c-2.1-2.5-3.2-5.8-3.2-9.7
		c0-4.5,1.4-8.5,4.2-12c1.4-1.7,2.9-3.1,4.5-4.3c1.6-1.2,4.6-2.9,8.9-5.2c3.8-2,7.3-4.3,10.5-7V71.1z"/>
	<path class="st0" d="M46.1-10c2.1,0,4,0.8,5.5,2.3C53.2-6.2,54-4.3,54-2.2c0,2.2-0.8,4-2.3,5.5c-1.5,1.5-3.4,2.3-5.5,2.3
		c-2.2,0-4.1-0.8-5.6-2.3C39,1.8,38.3,0,38.3-2.2c0-2.1,0.8-4,2.3-5.5C42.1-9.2,43.9-10,46.1-10z"/>
	<path d="M52.6,0c1.7,0,3.2,0.6,4.4,1.8c1.2,1.2,1.9,2.7,1.9,4.4c0,1.7-0.6,3.2-1.9,4.4c-1.2,1.2-2.7,1.8-4.4,1.8
		c-1.8,0-3.2-0.6-4.5-1.8c-1.2-1.2-1.8-2.7-1.8-4.4c0-1.7,0.6-3.2,1.8-4.4C49.3,0.7,50.8,0,52.6,0z"/>
	<path d="M9.8,0c1.7,0,3.2,0.6,4.4,1.8c1.2,1.2,1.9,2.7,1.9,4.4c0,1.7-0.6,3.2-1.9,4.4c-1.2,1.2-2.7,1.8-4.4,1.8
		c-1.8,0-3.2-0.6-4.5-1.8C4.2,9.5,3.6,8,3.6,6.2c0-1.7,0.6-3.2,1.8-4.4C6.6,0.6,8.1,0,9.8,0z"/>
	<path d="M31.2,0c1.7,0,3.2,0.6,4.4,1.8c1.2,1.2,1.9,2.7,1.9,4.4c0,1.7-0.6,3.2-1.9,4.4c-1.2,1.2-2.7,1.8-4.4,1.8
		c-1.8,0-3.2-0.6-4.5-1.8c-1.2-1.2-1.8-2.7-1.8-4.4c0-1.7,0.6-3.2,1.8-4.4C28,0.6,29.4,0,31.2,0z"/>
	<path d="M101.5,92.4l0.1,16.3v6.1c0,4,0.2,6.9,0.7,8.8c0.5,1.9,1.4,3.4,2.7,4.7c1.7,1.6,4.7,2.8,9.1,3.5v1.9H75v-1.9
		c3.5-0.5,6.1-1.1,7.6-1.9c1.5-0.8,2.8-2.3,3.7-4.3c0.6-1.4,1.1-3.4,1.4-6.2c0.3-2.8,0.4-6.7,0.4-11.9V46.3c0-6.7-1.1-11.4-3.1-14.3
		c-2.1-2.8-5.6-4.3-10.6-4.3v-2.2l25.9-3.6c0.6,2.8,1,5.4,1,7.8v1.7c4.4-3,8.5-5.1,12.3-6.3c3.8-1.3,8-1.9,12.5-1.9
		c9,0,16.6,2.7,23,8.1c4,3.4,7.1,7.7,9.3,12.8c2.2,5.1,3.3,10.8,3.3,17c0,6.4-1.2,12.4-3.5,18c-2.3,5.6-5.6,10.1-10,13.7
		c-6.7,5.7-14.7,8.6-24,8.6c-4.4,0-8.2-0.7-11.5-1.9C109.5,98.2,105.8,95.8,101.5,92.4z M101.5,63c0,8.2,0.4,14.3,1.1,18.4
		c0.7,4.1,2,7.5,3.8,10c1.6,2.2,3.8,4,6.5,5.4c2.7,1.4,5.4,2,8.2,2c6.2,0,11.7-3,16.3-8.9c2.8-3.5,5-7.7,6.5-12.6
		c1.5-4.8,2.3-9.9,2.3-15.2c0-5.1-0.7-10.1-2.2-14.9c-1.4-4.9-3.5-9.1-6-12.5c-4.4-6-9.8-9-16.1-9c-3.1,0-6.1,0.8-8.8,2.3
		c-2.8,1.5-5,3.6-6.6,6.3c-1.8,2.8-3.1,6.4-3.8,10.6C101.9,49.2,101.5,55.2,101.5,63z"/>
	<path d="M166.8,24.5h34.4v1.9c-2.4,0.4-4.2,0.8-5.2,1.4c-2.3,1.3-3.5,3.3-3.5,6c0,2.4,1.2,6.6,3.6,12.7l14.8,38l12.9-31.9
		c3.2-8,4.8-13.6,4.8-16.9c0-2.7-0.7-4.8-2.2-6.3c-1.5-1.6-3.6-2.5-6.5-2.9v-1.9h25.3v1.9c-2.5,0.7-4.4,1.4-5.6,2.2
		c-1.2,0.8-2.4,2-3.5,3.6c-1.7,2.6-4.4,8.4-8.2,17.5l-25.7,62.4c-3.1,7.4-5.6,12.3-7.4,14.5c-3.2,3.7-7.2,5.6-12.1,5.6
		c-3.1,0-5.7-0.6-7.6-1.8c-1.9-1.2-2.9-2.8-2.9-4.7c0-1.5,0.6-2.8,1.7-3.7c1.1-0.9,2.6-1.4,4.4-1.4c1.5,0,3.3,0.4,5.3,1.2
		c1.9,0.8,3.2,1.2,3.8,1.4c0.6,0.2,1.2,0.3,2,0.3c3.7,0,6.6-2.8,8.9-8.3l2.7-6.8c1.2-2.8,1.8-5,1.8-6.6c0-2.2-1.1-6-3.4-11.4
		l-18.4-44.2l-2.6-6.4c-1.6-3.8-2.8-6.5-3.7-8.1c-0.9-1.6-1.8-2.7-2.7-3.5c-1.5-1.1-3.2-1.8-5.3-2V24.5z"/>
</g>
</svg>
