<?xml version="1.0" standalone="no"?>
<!DOCTYPE svg PUBLIC "-//W3C//DTD SVG 20010904//EN"
 "http://www.w3.org/TR/2001/REC-SVG-20010904/DTD/svg10.dtd">
<svg version="1.0" xmlns="http://www.w3.org/2000/svg"
 width="2462.000000pt" height="2462.000000pt" viewBox="0 0 2462.000000 2462.000000"
 preserveAspectRatio="xMidYMid meet">
<metadata>
Created by potrace 1.14, written by Peter Selinger 2001-2017
</metadata>
<g transform="translate(0.000000,2462.000000) scale(0.100000,-0.100000)"
fill="#000000" stroke="none">
<path d="M6790 20136 c0 -2 -18 -54 -41 -117 -22 -63 -42 -121 -44 -129 -6
-23 -54 -162 -65 -185 -5 -11 -18 -49 -31 -85 -27 -79 -98 -286 -136 -395
l-28 -80 0 -845 1 -845 69 1 c54 0 103 11 215 47 432 137 495 154 550 152 30
-2 127 -6 215 -9 88 -4 201 -9 250 -11 50 -3 151 -7 225 -10 162 -7 296 -13
446 -20 l111 -6 17 42 c43 106 188 526 189 544 1 24 -13 188 -17 212 -2 10 -7
54 -10 98 -4 44 -9 98 -11 120 -6 50 -12 118 -20 215 -4 41 -10 102 -14 134
-8 60 -7 161 3 232 9 67 15 117 21 179 3 33 8 74 10 90 3 17 7 55 10 85 3 30
11 108 18 172 l13 118 -31 9 c-27 9 -235 63 -484 127 -56 14 -108 21 -130 18
-77 -11 -98 -13 -166 -20 -38 -3 -77 -7 -85 -9 -8 -2 -49 -6 -90 -10 -41 -4
-83 -9 -92 -11 -10 -1 -161 42 -335 97 l-317 99 -108 0 c-59 0 -108 -2 -108
-4z"/>
<path d="M5558 19685 c-2 -2 -19 -6 -40 -9 -20 -3 -112 -19 -205 -35 -92 -16
-186 -32 -208 -36 -22 -3 -47 -7 -55 -10 -8 -2 -33 -6 -55 -10 -22 -3 -76 -12
-120 -20 -44 -8 -96 -17 -115 -20 -19 -3 -42 -7 -50 -10 -8 -2 -46 -6 -85 -10
-38 -3 -88 -8 -110 -10 -39 -4 -95 -9 -240 -20 -38 -3 -88 -7 -110 -10 -22 -2
-76 -7 -120 -11 -112 -9 -109 -8 -111 -35 -4 -54 -15 -176 -19 -209 -2 -19 -7
-69 -11 -110 -3 -41 -8 -88 -9 -105 -25 -228 -25 -380 0 -645 2 -19 6 -80 10
-135 3 -55 8 -116 10 -135 2 -19 7 -78 11 -130 3 -52 7 -107 8 -123 3 -36 8
-40 96 -66 41 -12 134 -39 205 -61 72 -21 222 -66 335 -100 113 -35 216 -63
230 -63 27 0 213 11 295 18 28 2 88 7 135 9 47 3 126 9 175 12 l90 6 83 86 83
87 -6 110 c-3 61 -8 146 -10 190 -7 126 -15 272 -20 375 -5 94 -9 166 -21 395
-8 150 -10 128 20 270 14 66 27 134 29 150 5 27 42 224 52 268 6 31 -128 170
-147 152z"/>
<path d="M1460 18904 c-12 -32 -98 -243 -109 -269 -42 -96 -50 -126 -46 -166
3 -24 7 -78 9 -119 8 -120 16 -231 21 -280 2 -25 7 -90 11 -145 3 -55 7 -114
9 -131 1 -16 -4 -59 -11 -95 -7 -35 -16 -80 -19 -99 -3 -19 -10 -51 -15 -70
-5 -19 -11 -51 -14 -70 -3 -19 -8 -44 -10 -55 -26 -125 -38 -196 -34 -200 2
-2 64 -23 136 -46 l132 -41 123 47 c67 25 131 50 142 55 11 5 97 39 190 75 94
36 236 91 317 122 l147 57 68 170 68 171 3 421 2 420 -132 136 -133 136 -423
0 -423 1 -9 -25z"/>
<path d="M12390 16567 c-256 -68 -269 -70 -380 -70 -102 0 -393 8 -685 18 -55
2 -197 7 -315 10 -118 4 -250 8 -294 10 l-78 3 -30 -67 c-16 -36 -33 -75 -38
-86 -5 -11 -43 -98 -84 -193 l-75 -173 -6 -322 c-9 -509 -14 -819 -21 -1297
-3 -245 -8 -524 -9 -620 -6 -295 -6 -660 -1 -668 2 -4 7 -49 11 -100 3 -51 8
-102 10 -113 2 -11 7 -57 10 -103 3 -45 7 -98 10 -117 2 -19 7 -68 10 -109 3
-41 8 -93 10 -115 2 -22 7 -69 10 -105 3 -36 8 -83 10 -105 2 -22 7 -71 10
-110 3 -38 8 -92 11 -120 9 -104 14 -157 19 -207 2 -29 7 -83 11 -119 3 -37 7
-82 9 -100 10 -128 16 -198 20 -224 2 -16 7 -66 11 -110 3 -44 8 -91 9 -105 2
-14 6 -56 9 -95 4 -38 9 -88 11 -110 2 -22 7 -71 10 -110 3 -38 8 -86 10 -105
6 -49 13 -123 20 -205 4 -38 8 -86 10 -105 4 -32 7 -67 20 -200 2 -25 7 -79
10 -120 3 -41 8 -82 10 -90 18 -70 25 -368 12 -565 -8 -117 -14 -213 -22 -335
-3 -41 -7 -120 -10 -175 -3 -55 -8 -125 -10 -155 -3 -30 -7 -98 -10 -150 -3
-52 -7 -124 -10 -160 -26 -370 -26 -592 0 -815 2 -17 6 -66 10 -110 15 -201
23 -303 30 -390 3 -33 8 -85 10 -115 3 -30 7 -84 10 -120 7 -101 15 -211 20
-260 2 -25 7 -81 10 -125 3 -44 8 -100 10 -125 6 -56 13 -141 20 -240 3 -41 8
-97 11 -124 3 -34 -6 -94 -31 -202 -20 -84 -38 -162 -40 -171 -13 -62 -58
-247 -72 -296 -16 -57 -16 -61 10 -185 15 -70 29 -136 32 -147 3 -11 19 -84
37 -162 l33 -143 30 -1 c17 0 41 -2 55 -4 14 -1 68 -6 120 -10 52 -4 111 -8
130 -10 19 -1 78 -6 130 -9 52 -4 111 -9 130 -11 112 -13 225 -15 272 -6 29 6
64 13 78 15 14 3 63 12 110 21 47 9 96 19 110 21 48 9 345 65 420 80 41 8 77
18 81 22 3 4 23 50 44 102 20 52 46 114 56 137 11 24 19 49 19 56 0 7 4 17 9
23 4 5 27 59 51 119 23 61 50 128 60 150 32 73 39 109 44 230 10 201 17 337
21 410 23 435 23 551 -5 665 -5 19 -11 58 -15 85 -3 28 -8 61 -9 75 -5 32 -15
100 -20 125 -2 11 -7 43 -10 70 -6 45 -19 131 -30 195 -3 14 -7 45 -10 70 -6
43 -9 65 -21 135 -6 33 -45 292 -51 340 -2 17 -9 55 -14 85 -5 30 -12 71 -14
90 -3 19 -9 64 -15 100 -5 36 -13 83 -16 105 -3 23 -7 50 -9 61 -2 12 -7 45
-11 75 -4 30 -9 57 -12 62 -2 4 -1 8 4 8 18 3 110 6 318 13 121 4 279 9 350
11 137 5 273 10 595 20 107 3 205 8 216 10 12 3 154 69 315 148 l294 144 285
208 c157 115 296 217 310 227 158 119 156 118 267 143 60 13 196 44 304 68
l195 45 205 115 c112 63 233 131 267 151 35 20 66 36 68 36 2 0 37 19 77 43
122 71 129 76 227 129 52 28 97 52 99 54 2 2 25 91 52 199 35 141 46 201 40
218 -5 12 -38 83 -74 157 -35 74 -84 176 -107 225 -23 50 -55 115 -70 147 -23
45 -29 75 -34 155 -4 54 -9 116 -11 138 -3 22 -7 83 -10 135 -3 52 -8 111 -10
130 -2 19 -6 80 -9 135 -4 55 -8 120 -11 145 -2 25 -6 83 -9 130 -4 47 -8 110
-11 140 -8 97 -22 287 -30 405 -9 139 -15 228 -20 295 -3 36 -7 97 -10 135 -3
39 -7 95 -10 125 -3 30 -7 89 -10 130 -3 41 -7 102 -10 135 -2 33 -7 98 -10
145 -23 338 -21 328 -87 488 -33 81 -69 167 -78 192 -10 25 -29 72 -43 105
-33 81 -71 173 -254 620 -157 386 -167 409 -197 480 -15 35 -75 83 -478 385
-253 190 -468 348 -477 352 -9 4 -50 16 -91 28 -41 12 -97 28 -125 36 -54 15
-418 117 -500 139 -27 8 -106 30 -175 49 -69 19 -199 55 -290 80 -91 25 -178
50 -195 55 -16 5 -64 19 -105 30 -41 11 -131 37 -200 57 -69 19 -132 37 -140
39 -9 2 -90 24 -181 49 -91 25 -169 46 -175 45 -5 0 -128 -33 -274 -72z m565
-752 c55 -26 147 -70 205 -98 241 -114 318 -150 366 -173 60 -27 60 -27 115
-129 24 -44 53 -98 66 -120 12 -22 26 -47 30 -55 3 -8 27 -53 53 -100 26 -47
66 -121 90 -165 45 -84 88 -163 125 -230 273 -498 292 -538 299 -612 4 -39 9
-82 11 -95 4 -28 11 -82 25 -208 6 -52 13 -109 15 -127 3 -17 9 -73 15 -125 6
-51 13 -104 15 -118 2 -14 7 -51 10 -83 3 -32 7 -72 10 -90 2 -18 7 -52 10
-77 5 -50 12 -113 20 -180 3 -25 8 -65 11 -90 9 -82 14 -125 19 -160 2 -19 7
-57 10 -85 3 -27 8 -68 11 -90 3 -22 7 -56 9 -75 6 -64 16 -151 20 -168 1 -9
6 -46 10 -82 3 -36 8 -76 10 -90 2 -14 7 -56 10 -95 4 -38 8 -77 10 -86 2 -9
6 -38 9 -65 12 -99 27 -230 31 -264 3 -19 7 -57 10 -85 3 -27 10 -84 15 -125
12 -99 18 -155 25 -215 3 -27 10 -84 15 -125 5 -41 12 -97 15 -125 6 -58 14
-127 20 -170 2 -16 6 -57 10 -90 4 -33 9 -73 11 -89 3 -16 7 -53 9 -83 3 -30
9 -83 14 -119 10 -69 9 -83 -47 -369 l-27 -139 -41 -31 c-23 -16 -50 -36 -60
-43 -16 -10 -332 -226 -384 -262 -8 -6 -62 -43 -120 -83 -58 -40 -170 -117
-250 -172 -80 -54 -173 -118 -207 -142 -35 -24 -91 -62 -125 -86 -35 -24 -107
-73 -160 -110 l-97 -67 -503 0 -503 0 77 73 77 72 7 105 c3 58 7 112 9 120 2
8 6 69 10 135 3 66 8 131 10 145 2 14 6 70 10 125 3 55 8 116 10 135 3 30 10
125 20 270 1 19 5 73 9 120 4 47 9 112 11 145 5 70 13 184 20 273 3 34 7 90
10 125 12 174 21 287 30 407 3 36 7 97 10 135 3 39 7 99 10 135 3 37 8 97 10
135 3 39 8 111 12 160 12 144 9 274 -12 525 -2 25 -6 90 -10 145 -3 55 -7 125
-10 155 -2 30 -6 96 -10 145 -3 50 -8 110 -10 135 -2 25 -7 95 -10 155 -4 61
-8 128 -10 150 -2 22 -6 81 -10 130 -5 83 -8 132 -20 305 -2 36 -7 97 -10 135
-8 108 -16 223 -20 297 -2 37 -6 97 -9 135 -7 79 -15 200 -21 294 -2 37 -6
102 -9 145 -3 44 -8 111 -11 149 -2 39 -7 102 -10 140 -3 39 -7 106 -10 150
-10 141 -16 209 -20 235 -3 14 -7 48 -10 75 -4 28 -10 77 -15 110 -29 198 -37
266 -31 269 3 2 58 20 121 39 63 19 171 53 240 75 143 45 111 49 305 -43z"/>
<path d="M4320 16311 c-80 -31 -149 -59 -155 -62 -5 -4 -23 -9 -38 -13 -25 -6
-47 -46 -234 -424 -225 -457 -193 -373 -432 -1112 -57 -173 -111 -337 -121
-365 -10 -27 -29 -86 -43 -130 -35 -110 -258 -795 -322 -990 -29 -88 -108
-329 -175 -535 -67 -206 -139 -427 -160 -490 -21 -63 -93 -284 -160 -490 -66
-206 -124 -382 -127 -390 -3 -8 -7 -19 -9 -25 -1 -5 -34 -109 -74 -230 -40
-121 -110 -337 -157 -480 -143 -441 -154 -472 -330 -955 -19 -52 -45 -124 -58
-160 -51 -145 -87 -246 -95 -265 -13 -30 -171 -468 -175 -485 -2 -8 -12 -37
-23 -65 -11 -27 -68 -185 -127 -350 -59 -165 -116 -325 -128 -355 -12 -30 -22
-57 -23 -60 0 -3 -3 -12 -7 -20 -3 -8 -40 -109 -81 -225 -114 -322 -127 -358
-142 -392 -8 -17 -14 -36 -14 -42 0 -6 -4 -19 -9 -29 -8 -15 -44 -114 -206
-567 -26 -71 -205 -569 -278 -770 -8 -22 -40 -110 -70 -195 -56 -156 -139
-385 -163 -450 -57 -157 -126 -347 -128 -355 -4 -14 -16 -46 -28 -75 -6 -14
-14 -38 -19 -53 l-8 -28 67 6 c37 3 74 7 82 9 8 3 53 7 100 11 47 3 99 8 115
10 39 6 229 26 280 30 22 2 65 7 95 10 30 3 73 8 95 10 57 4 164 15 205 20 19
2 60 7 90 10 30 3 71 8 90 10 19 2 64 7 100 10 36 3 81 8 100 10 19 2 62 7 95
10 57 6 106 11 185 20 19 2 67 7 105 11 39 4 77 8 85 9 8 2 18 4 21 4 3 1 6
22 6 49 0 26 3 139 6 252 4 113 9 312 13 444 3 131 7 244 8 252 2 11 128 208
505 789 46 72 104 162 129 200 25 39 74 114 109 167 41 63 67 114 73 145 5 26
11 58 14 69 2 12 7 39 10 60 4 22 8 46 11 54 2 8 6 28 9 44 4 24 124 319 192
472 7 16 98 232 203 478 104 246 191 449 193 450 2 3 475 122 518 131 8 2 332
83 720 180 388 97 713 178 723 180 51 11 316 76 342 84 49 16 403 101 418 101
10 0 24 -51 51 -187 20 -104 38 -199 41 -213 16 -81 68 -349 72 -370 2 -14 10
-56 18 -95 8 -38 16 -81 19 -95 6 -33 99 -512 131 -675 14 -71 28 -143 30
-160 3 -16 8 -41 10 -55 3 -14 7 -36 10 -50 3 -14 16 -81 30 -150 13 -69 27
-136 29 -150 3 -14 8 -38 11 -55 3 -16 15 -77 26 -135 11 -58 29 -148 39 -200
16 -79 65 -332 122 -633 10 -53 16 -61 48 -59 3 0 59 3 125 7 66 3 152 8 190
10 39 2 122 6 185 10 63 3 147 8 185 10 39 3 122 7 185 10 139 7 160 10 264
35 84 20 376 88 411 95 60 13 164 37 190 44 17 5 66 17 110 26 44 10 83 19 86
21 3 2 -3 49 -13 106 -43 242 -69 391 -73 430 -3 24 -8 60 -10 81 -3 20 -7 54
-10 75 -12 96 -16 129 -20 157 -4 42 -14 124 -19 160 -2 17 -7 55 -10 85 -9
72 -12 96 -35 280 -11 85 -23 180 -26 210 -3 30 -12 100 -19 155 -8 61 -14
210 -14 385 l-1 285 -30 80 c-38 100 -28 77 -276 715 -114 294 -216 567 -227
605 -11 39 -29 99 -39 135 -23 80 -182 649 -249 895 -27 99 -54 194 -59 210
-9 27 -196 705 -241 870 -10 39 -48 185 -84 325 -36 140 -90 354 -122 475 -31
121 -60 236 -65 255 -9 42 -166 655 -250 980 -42 162 -78 303 -84 332 -2 9
-20 79 -40 155 -20 76 -38 145 -40 153 -7 31 -54 217 -68 270 -9 30 -48 183
-87 340 -40 157 -76 292 -81 301 -4 9 -35 20 -76 28 -37 7 -102 19 -143 28
-41 8 -86 17 -100 19 -14 2 -45 9 -70 14 -25 5 -130 26 -235 46 -209 40 -209
39 -280 54 -27 5 -61 12 -75 14 -14 3 -61 12 -105 20 -44 9 -91 18 -105 21
-14 3 -47 9 -75 15 -27 5 -61 12 -75 14 -14 3 -108 21 -210 41 -102 20 -207
40 -235 46 -27 5 -61 11 -75 14 -33 6 -82 16 -100 20 -8 1 -80 -23 -160 -54z
m610 -2723 c0 -7 90 -251 336 -917 36 -96 78 -222 94 -280 107 -393 191 -701
200 -731 13 -44 121 -440 125 -460 2 -8 27 -98 55 -200 29 -102 53 -189 54
-195 21 -80 81 -298 113 -410 32 -111 40 -292 13 -299 -12 -4 -75 -17 -145
-30 -5 -1 -23 -5 -40 -9 -16 -4 -41 -9 -55 -11 -14 -2 -45 -9 -70 -15 -25 -5
-61 -13 -80 -16 -19 -3 -87 -17 -150 -30 -63 -13 -126 -26 -140 -28 -42 -8
-227 -45 -385 -77 -82 -17 -161 -33 -175 -36 -145 -27 -206 -45 -349 -103 -92
-38 -270 -109 -397 -160 l-231 -91 -59 14 c-94 23 -178 48 -187 56 -5 4 1 30
12 56 11 27 45 114 76 194 31 80 60 154 65 165 5 11 45 115 90 230 127 328
220 568 230 590 32 74 286 737 294 770 2 6 6 17 9 25 7 15 91 252 107 300 5
14 27 77 50 140 23 63 59 165 80 225 21 61 50 142 65 180 15 39 28 75 29 80 1
6 13 42 25 80 13 39 44 142 71 230 26 88 80 266 120 395 39 129 73 240 74 245
1 6 13 45 26 88 21 69 26 76 37 61 7 -10 13 -21 13 -26z"/>
<path d="M17418 15747 c-14 -45 -53 -167 -86 -272 -33 -104 -79 -250 -103
-324 l-42 -134 31 -26 c130 -114 230 -220 242 -256 7 -22 26 -69 42 -103 15
-35 28 -68 28 -73 0 -5 9 -31 21 -57 31 -69 30 -67 129 -322 51 -129 98 -248
105 -265 7 -16 43 -106 80 -200 37 -93 104 -264 150 -380 46 -115 131 -331
189 -480 59 -148 113 -283 120 -300 8 -16 28 -68 46 -115 17 -47 38 -98 45
-115 12 -27 205 -517 320 -810 26 -66 53 -133 60 -150 7 -16 28 -69 46 -116
38 -97 -12 -40 599 -679 102 -106 199 -208 215 -225 17 -17 52 -55 79 -83 l49
-51 -17 -43 c-10 -24 -24 -56 -31 -73 -7 -16 -70 -167 -140 -335 -69 -168
-130 -314 -135 -325 -5 -11 -55 -130 -110 -265 -56 -135 -107 -258 -115 -275
-7 -16 -36 -86 -65 -155 -56 -136 -143 -344 -167 -400 -8 -19 -19 -44 -24 -55
-4 -11 -20 -49 -34 -85 -14 -36 -30 -74 -35 -85 -6 -11 -43 -101 -84 -200 -72
-174 -78 -184 -183 -319 -59 -77 -112 -144 -118 -150 -5 -6 -32 -40 -60 -76
-27 -36 -56 -73 -65 -82 -8 -9 -55 -97 -105 -195 -49 -98 -100 -195 -113 -215
-12 -21 -20 -38 -16 -38 3 0 -3 -15 -14 -32 -11 -18 -97 -186 -192 -373 -95
-187 -239 -470 -320 -630 -81 -159 -164 -333 -183 -385 -19 -52 -65 -178 -102
-280 -36 -102 -75 -207 -85 -235 -10 -27 -32 -88 -49 -134 -21 -55 -28 -87
-21 -91 6 -3 81 -17 168 -29 86 -13 166 -25 177 -27 30 -6 75 -13 120 -19 22
-3 67 -10 100 -15 33 -5 78 -11 100 -15 22 -3 65 -10 95 -15 30 -5 71 -12 90
-14 59 -8 303 -47 330 -52 14 -3 122 -8 240 -11 l215 -5 32 89 c17 48 50 135
72 193 22 58 130 348 241 645 110 297 207 556 215 575 8 19 32 83 54 141 37
100 49 119 212 335 95 126 183 243 196 259 129 165 249 339 560 805 254 382
385 590 482 763 73 132 140 253 150 270 10 18 33 59 51 92 18 33 42 76 53 95
20 36 274 489 319 570 14 25 146 261 295 525 148 264 295 525 325 580 47 84
118 189 171 255 7 8 66 87 131 175 397 533 1089 1461 1114 1492 9 12 24 31 32
43 18 27 92 123 100 130 3 3 66 82 140 175 74 94 137 172 140 175 3 3 40 49
83 103 l78 98 35 162 c19 89 37 178 40 197 3 19 8 38 10 41 2 3 6 20 9 37 3
17 30 84 60 148 30 64 55 117 55 119 0 1 22 49 49 106 26 57 97 210 156 339
59 129 112 239 116 245 11 11 12 125 2 126 -5 0 -15 2 -23 4 -22 5 -60 12
-105 20 -22 4 -49 9 -60 12 -17 3 -113 21 -195 37 -14 3 -74 14 -135 26 -60
12 -121 23 -135 26 -68 13 -408 78 -500 95 -58 11 -150 29 -205 39 -55 11
-173 33 -261 50 l-161 30 -183 -112 c-129 -80 -188 -122 -200 -143 -19 -34
-205 -394 -291 -563 -32 -63 -63 -120 -70 -128 -6 -8 -8 -14 -4 -14 4 0 3 -6
-3 -12 -9 -13 -77 -141 -250 -478 -49 -96 -114 -222 -144 -280 -31 -58 -96
-184 -145 -280 -50 -96 -129 -249 -176 -340 -201 -389 -256 -503 -312 -640
-32 -80 -60 -147 -63 -150 -5 -7 -89 85 -104 116 -7 14 -118 209 -247 434
-129 225 -236 415 -237 422 -1 7 -18 94 -39 193 -42 205 -43 211 -50 245 -6
33 -9 45 -38 185 -14 66 -28 131 -31 145 -3 19 -39 192 -61 300 -58 281 -91
443 -115 560 -16 80 -36 177 -44 215 -9 39 -60 201 -114 360 l-99 290 -124 32
c-68 18 -135 34 -149 36 -14 3 -45 10 -70 17 -25 7 -52 14 -60 15 -8 2 -170
42 -360 89 -511 125 -763 187 -780 191 -8 2 -190 47 -405 100 -214 53 -397 98
-406 100 -11 2 -22 -18 -41 -78z"/>
</g>
</svg>
