<svg version="1" xmlns="http://www.w3.org/2000/svg" width="4380" height="4380" viewBox="0 0 3285.000000 3285.000000"><path d="M1324.5 265.5c-103.4 23.1-162.1 36.2-430 95.9-97.3 21.7-226.7 50.5-287.5 64.1-60.8 13.5-173.9 38.7-251.5 56C77 543.6 26.9 554.8 26.4 555.2c-.4.5 15.7 283 16.2 283.6.1.2 11.4-1 25.1-2.8 35-4.4 1400.4-190.9 1402.6-191.6 1.5-.5 1.8-1.3 1.3-3.7-.3-1.8-10.7-82.9-23.1-180.2-12.4-97.4-23.7-184.8-25-194.4-1.4-9.6-2.5-18.4-2.5-19.7 0-1.3-.3-2.4-.7-2.3-.5.1-43.5 9.7-95.8 21.4zM1040 441c28.3 8.2 49.7 30.1 58.1 59.5 3 10.3 3.7 29.6 1.5 40.5-5.2 25.4-21.6 47.1-44.6 58.9-19.2 9.9-45.3 12.3-65.6 6-43.7-13.5-68.8-59.6-57.3-104.9 7.8-30.5 32.9-54.5 64.4-61.4 10.3-2.3 33.5-1.6 43.5 1.4zm-275.7 36.5c3.8.8 10.3 2.9 14.5 4.7 23.6 10.3 39.4 28 47.7 53.8 3.7 11.4 4.6 30.5 2 43.1-5.7 28.2-25.3 51.5-52.5 62.2-13.9 5.5-35.4 7.3-50 4.2-14.3-3-29.1-10.5-40.2-20.4-11-9.8-21-27.3-24.9-43.7-3-12.3-3-30.6 0-41.9 4.3-16.1 12.9-30.5 24.8-41.5 20.6-18.9 49.7-26.4 78.6-20.5zM479.5 515c20.4 2.9 40.8 14.5 53.5 30.3 6.2 7.7 13.2 21.7 16.2 32.2 3.3 11.6 3.3 34.5 0 45.9-8.6 29.9-30.8 51.5-61.4 59.8-6.8 1.9-10.8 2.3-22.8 2.2-17.2 0-22.8-1.2-37.5-8.4-21.9-10.6-36.6-28.4-44.1-53.5-2.3-7.9-2.7-10.7-2.7-23.5 0-11.8.4-16 2.1-22.5 11.4-42.3 52.5-68.8 96.7-62.5zM2209.5 510.1c-96.2 8.8-167.7 49.6-218.3 124.7-9.6 14.3-14 21.5-20.8 34.6l-5.4 10.1V533h-361v586.5c0 471.6.2 586.5 1.3 586.5 2.9 0 330.8-61.6 355.2-66.7l4-.9.3-208.4.2-208.5 7.5 13.5c25.2 45.1 58.7 82.8 96 108 40.4 27.3 89.9 43.6 145.4 47.9 87.3 6.9 171.7-14.3 248-62.2 90.6-56.8 158.4-150.2 186.1-256.2 11.5-43.9 15.7-81.9 14.7-132-.8-38.3-3.8-65.3-10.8-97.5-20.3-92.8-71.9-179.6-140.9-237.2-63.4-52.9-136.9-84.6-219-94.4-15.9-1.9-67.3-2.7-82.5-1.3zM2164.3 782c36.1 6.1 68 23.6 94.8 51.8 32.4 34 47.3 74.4 45.6 123-1.6 46.1-19.2 84.4-54.5 118.4-24 23.1-49.1 36.4-82.2 43.5-6.9 1.5-13 1.8-32.5 1.8-21-.1-25.3-.3-34.2-2.3-21.1-4.6-43.8-14.6-61.3-27-13-9.2-34.9-31.1-43.5-43.6-15.7-22.6-25.5-48.5-28.5-75.1-1.3-11.7-1.3-38.8 0-49.5 3.2-25.9 14.1-52.8 29.6-73.2 29.3-38.7 70-63.1 114.4-68.7 13.2-1.7 40-1.2 52.3.9zM1443.5 852.2c-23.1 1.1-330.8 14.7-683.8 30.2-352.9 15.6-642.1 28.6-642.4 29-.4.4-2.5 32.5-4.5 71.4-3.5 64.1-5.4 127.1-20.7 675.2-9.4 332.4-16.8 604.6-16.6 604.9.6.6 41 3.8 107.5 8.7 11.3.8 29.7 2.1 41 3 11.3.8 26.8 1.9 34.5 2.4 7.7.5 19.6 1.4 26.5 1.9 6.9.6 22.2 1.7 34 2.6 11.8.8 30.6 2.2 41.7 3 11.2.8 29.5 2.2 40.8 3 11.3.8 29.6 2.2 40.7 3 19.8 1.5 27.8 2 69.3 5 11 .8 29.2 2.2 40.5 3 11.3.8 29.7 2.2 41 3 11.3.8 29.7 2.2 41 3 11.3.8 29.7 2.2 41 3 11.3.8 29.7 2.2 41 3 11.3.8 29.7 2.2 41 3 11.3.8 29.7 2.2 41 3 11.3.8 29.7 2.2 41 3 11.3.8 30 2.2 41.5 3 11.6.9 30.2 2.2 41.5 3.1 11.3.8 26.8 1.9 34.5 2.4 7.7.5 19.6 1.4 26.5 1.9 6.9.6 22.2 1.7 34 2.6 11.8.8 30.6 2.2 41.7 3 11.2.8 29.5 2.2 40.8 3 11.3.8 29.6 2.2 40.7 3 19.8 1.5 27.8 2 69.3 5 19.3 1.4 39.8 2.9 82 6 11 .8 29.2 2.2 40.5 3 11.3.8 29.7 2.2 41 3 11.3.8 30 2.2 41.5 3 11.6.9 30.2 2.2 41.5 3 11.3.9 29.7 2.2 41 3 51.8 3.8 62.8 4.6 81.5 6 38.1 2.8 52.6 3.8 52.9 3.4.2-.2-25.2-211.2-56.6-468.9-64.1-527.8-57.4-465.1-59.7-563-.6-23.4-1.5-58-2.1-77-1.2-40-2.7-95-4-150.5-.5-21.5-1.4-55.2-2-75-.6-19.8-1.5-52.9-2-73.5-2.4-91.2-3.1-114.6-3.6-116.8-.5-2.7.8-2.7-57.9 0zM839 1068c123 4.6 219.5 35.3 295.2 94 12.5 9.6 39.1 36.8 49 50 36.8 48.9 56.9 104.4 65.5 181 2.2 19.2 2.5 96.1.5 112.5-.7 5.5-13.1 127.2-27.6 270.4-14.6 143.2-26.7 260.5-26.9 260.8-.5.5-156.8 14.7-173.9 15.9l-10.7.7-.5-3.4c-.3-1.9-5.8-53.6-12.1-114.9-6.4-61.3-12.6-120.7-13.8-132l-2.2-20.5h-7.4c-5.6 0-7.6.4-8.2 1.5-20.1 39.1-27.2 51.6-42.2 73.9-40.5 60.8-93.9 112.3-153.4 147.9-58.3 34.9-120.3 54.4-194.8 61.4-15.5 1.4-75.4 1.7-84.8.4-5.1-.7-7-1.7-16-8.4-12.7-9.4-38.7-35.4-48.9-48.7-41.3-54.5-68.9-125.3-78-200.5-2.9-23.5-3.1-65.2-.4-84.3 9-65.1 40.7-111.8 96.6-142.4 40.3-22 108.1-37.7 194-44.7 41.5-3.4 60.4-4.1 124-4.1 61.2 0 86.2.8 116 3.5 23.9 2.2 52.4 5.2 65.3 6.8l13.7 1.8v-3.1c0-7.7-4.2-46.5-6-56-14.3-73.8-81.7-127.8-176.5-141.4-83.7-12.1-160.1 3.8-240.5 49.8-6.8 3.9-12.7 6.8-13.1 6.4-.4-.5-3.2-9.1-6.2-19.3-3-10.2-14.8-48.9-26-86-43.1-141.8-49.8-164.2-49.5-164.5.7-.7 44.6-16.7 54.3-19.8 103.6-33.2 226.8-49.2 345.5-44.7z"/><path d="M813.5 1623.6c-57.3 1.9-106.2 5.7-139.8 11l-10.8 1.7-3.5 7.6c-9 19.3-15.6 38.5-19.6 57.1-2 9.2-2.2 13.3-2.2 33 0 24 1.1 34.8 6 57 5.5 24.8 17.6 55.3 25.6 64.3l3.3 3.8 9.8-1.6c75.8-12.3 143.6-43.6 192.5-88.8 37-34.1 65.4-77.5 84.5-128.7 1.9-5.2 3.8-10.7 4.2-12.1l.6-2.6-18.8-.6c-22.4-.8-117.6-1.6-131.8-1.1zM2586.8 1624.5c-345.8 34.7-629 63.3-629.3 63.6-.3.3-7.1 25.3-15.1 55.5-25 94.8-31.3 118.5-34.8 131.9-1.9 7.1-7.8 29.4-13.1 49.5-9.8 37.3-22.8 86.2-29 109.5-1.8 7.1-12.9 49-24.5 93-27.6 104.6-62.8 237.7-73.5 278-4.6 17.6-14.1 53.4-21 79.5-12.5 47.5-16.8 63.9-33.6 127.5-5 18.7-14.4 54.2-20.9 79-6.5 24.7-15.9 60.3-20.9 79-4.9 18.7-13.3 50.4-18.6 70.5-5.3 20.1-10.5 39.6-11.5 43.5-9.3 35-30 113.7-30 114.2 0 .3 2.6.2 5.8-.1 3.1-.3 16.1-1.1 28.7-1.7 19.6-.8 1232.6-71.4 1241-72.1 3.3-.3 1.9 4.1 12.9-41.8 2.6-10.7 19.4-80.5 37.3-155s33.8-140.7 35.3-147c1.5-6.3 18.4-76.5 37.5-156s36-149.7 37.5-156c1.5-6.3 19.7-82.2 40.5-168.5 20.8-86.4 39-162.2 40.5-168.5 1.5-6.3 18.4-76.5 37.5-156 37.5-155.7 50.7-211.9 50.3-213.5-.2-.7-229 21.9-629 62zm259.9 135.5c1.2 10.7 2.3 21.5 2.4 24l.3 4.5-22.8 3.2c-12.6 1.8-23 3.4-23.1 3.5-.1.2-8.1 26.6-17.8 58.8-84.4 281.7-172.7 575-177.6 590.1-21.1 65.5-57.5 173.3-63.6 188.4-20 49.7-39.1 86.4-55.6 106.8-12.1 15.1-31.3 30.1-56 44-18.1 10.1-31.8 14.9-54.4 19-16.1 2.9-47.7 3.1-60.2.4-36.1-7.8-64.8-28.4-77.7-55.8-5.6-11.7-6.8-17.6-7.3-35.9-.6-19.7.8-28.6 6.4-40 3-6.1 5.8-9.7 15.7-19.6 10.5-10.5 13.2-12.7 20.6-16.3 10.1-4.9 20.2-7.6 36.5-9.7 20.5-2.7 35.6.3 50.4 9.9 9 5.9 21.3 18.1 26 26.1 7.9 13.2 11.2 29.3 9.2 45-1.3 9.9-4.9 21.6-8.6 28.4l-2.4 4.3 2.2-.7c4.3-1.3 13.4-6.5 18.3-10.6 19.2-15.8 38.4-49.5 62.2-109.4 11.5-28.5 11.1-27.6 45.7-142.1l10.6-35.1-21.7-35.9c-12-19.7-33.3-54.9-47.4-78.3-14.1-23.4-45.2-74.7-69-114-88.7-146.5-113-186.6-139.5-230.5-47.4-78.4-75.7-125-76.9-126.2-.8-.9-6.5-.6-24.6 1.2-12.9 1.3-28 2.6-33.6 3l-10.1.7-2.3-24.1c-1.2-13.3-2.1-24.3-1.9-24.4.8-.6 341.3-33.6 341.7-33.2.9.8 5.6 47.4 4.9 48.1-.4.4-20 2.6-43.7 4.9-23.7 2.3-43.2 4.4-43.5 4.6-.5.5 233.7 416.9 234.5 416.9.3 0 1.3-2.6 2.2-5.8.8-3.1 5.4-19 10.1-35.2 7.9-26.9 21.3-74 76-266.5 28.4-99.6 40.9-144.6 40.5-145.1-.2-.1-17.9 1.5-39.3 3.6-21.5 2.1-45.3 4.3-53 5-7.7.6-15 1.3-16.2 1.5-2 .5-2.2 0-2.7-5.8-.4-3.4-1.4-14.4-2.4-24.5-1-10-1.8-18.2-1.8-18.3.5-.5 229.6-22.7 233.1-22.6l5 .2 2.2 19.5z"/></svg>