<svg version="1" xmlns="http://www.w3.org/2000/svg" width="2688" height="2688" viewBox="0 0 2016.000000 2016.000000"><path d="M494.7.6c-.1.1-5.4.5-11.7.8-6.3.4-12.3.9-13.5 1.1-1.1.2-3.8.7-6 1-8.2 1-11.3 1.7-24.5 5.1-26.6 6.9-51.1 17.9-73.2 32.9-34.7 23.6-63 56.5-80.9 94.2-7.2 15.1-15.1 37.6-17.5 49.8-.2 1.1-.8 4.2-1.4 7-2.2 11.3-2.4 12.6-3.5 27-1.2 15.8-.8 38.7 1 48.7.3 1.3.6 4 .9 6 .7 5.6 2.5 14.3 5.3 24.8 12.2 46.5 39.7 89.5 77.3 121.1 7 5.8 23.6 17.9 24.7 17.9.3 0 1.4.6 2.2 1.4 2.9 2.6 17.2 10.2 29.6 15.6 2.2.9 5.6 2.4 7.5 3.3 3.1 1.3 14.1 5.1 22.5 7.7 4.7 1.4 10.7 2.9 14.4 3.5 1.9.3 3.7.7 4 .9.3.2 2.6.7 5.1 1 2.5.3 5.6.8 6.9 1.1 10.5 2 45.7 2.8 59.4 1.2 15.3-1.7 29.8-4.6 43.8-8.7 30.1-8.9 62.4-26.6 86.8-47.7 25.3-21.7 48.3-53 62-84 6.3-14.4 13.7-37.9 15.5-49.3.3-1.9 1-6.2 1.6-9.5 3.4-19.6 3.4-51.7.1-73-7.8-49.6-30.3-94.2-65.5-129.7-13.2-13.4-14.6-14.6-27.5-24.2-20.5-15.2-44.8-27.9-68.1-35.3-8.9-2.8-22.3-6.3-26.2-6.8-1.5-.2-3.5-.6-4.5-.9-1-.3-3.8-.7-6.3-1-2.5-.3-5.5-.8-6.8-1-3.8-.8-32.9-2.5-33.5-2zM1004.7.6c-.1.1-5.6.4-12.2.8-6.6.3-12.9.8-14 1-1.1.2-4 .7-6.5 1-22.5 3.1-46.7 10.6-69 21.3-36 17.4-67.8 44.9-92.3 80-3.1 4.4-5.7 8.3-5.7 8.6 0 .3-1.9 3.6-4.2 7.3-11.1 18.3-23.1 50.6-26.7 71.9-.6 3.3-1.3 7.3-1.5 9-.3 1.6-.8 5.5-1.1 8.5-.4 3-.8 7.5-1.1 10-.7 6-.6 30.2.1 36.5 2 18.2 2.5 22.4 3.5 26.5.5 1.9 1.1 4.6 1.4 6 4 22.6 17.1 53.9 32.6 78 13.2 20.4 39 48.4 54.4 58.9 1.2.8 2.3 1.7 2.6 2 2.6 2.9 23.4 15.7 34.7 21.5 16.9 8.4 39.7 16.9 51.3 19 1.4.2 2.6.5 2.8.7.3.2 1 .4 6.7 1.4 2.8.4 5.7 1 6.5 1.1 9 2 22 2.9 40 2.9 22.7 0 31.2-.9 51-5.1 12.8-2.8 33.7-9.6 44.5-14.4 3.9-1.7 7.2-3.2 7.5-3.3 2.3-.7 20.3-11.1 28-16.2 27.5-18.4 50.5-41.8 68.9-70 8.5-13.1 19.7-36.7 25-53 2.7-8.3 5.2-16.4 5.5-18 .2-1.7 1.4-7.7 2.6-13.5 2.8-14.1 3.5-22.3 3.5-43 0-27.3-2.2-43.5-9.4-68-4.4-15.1-15.7-41.1-23.4-53.5-11.1-17.9-22.7-32.7-36.6-46.5-9.4-9.4-11.1-10.9-20.1-18.1-5.3-4.3-21.8-15.9-22.6-15.9-.3 0-1.8-.9-3.4-2-5-3.6-26.4-13.9-37.4-18-10.5-4-33.3-10.3-41.1-11.5-13.2-1.9-18.8-2.6-26-3.1-8.6-.6-18.5-1-18.8-.8zM1514.7.7c-.1.1-3.9.3-8.4.4-7 .2-18.2 1.4-31.3 3.4-18.4 2.9-45.1 11.9-65.2 22-59.4 30.1-104.7 86.1-121.7 150.6-2.9 11.2-3.5 14.3-4.7 22.4-.3 2.2-.7 4.6-.9 5.3-2.5 7.5-2.5 52.3 0 66.7.3 1.6 1 5.9 1.6 9.5 2.9 16.8 10.9 41.6 19.4 59.4 26 54.8 73.9 98.4 131.9 120 10.5 4 33 10 41 11.1 2.7.3 5.2.8 5.6 1 1.5.9 19.2 2 34.5 2 15.6 0 29.2-.8 35.5-2 1.3-.2 4.2-.7 6.5-1 2.2-.3 8.6-1.7 14.1-3 78.9-18.7 144.1-78.5 169.7-155.5 2.3-6.9 4.3-13.8 5.3-18.2.2-1 .6-2.8.9-4.1.3-1.2.8-3.6 1-5.2.3-1.7.8-3.7 1-4.5.3-.8.7-3.5 1-6 .3-2.5.7-5.6 1-7 2.6-13.1 2.1-51-.9-66.5-.2-1.1-.7-4-1.1-6.5-4.4-28.1-18.7-63.1-36.7-90-25.2-37.5-64.9-69.8-105.8-86.2-15-6-36.8-12.5-47.5-14.1-1.6-.3-4.6-.7-6.5-1.1-1.9-.3-5.1-.8-7-1.1-6-.8-31.9-2.3-32.3-1.8zM973.8 525.5c-.2.2-5.7.6-12.3 1-6.6.3-13.8.8-16 1-2.2.3-6.7.7-10 1-7.5.6-16.2 1.5-19.5 2-1.4.2-6.3.9-11 1.5s-9.6 1.3-11 1.6c-1.4.2-4.1.6-6 .9-1.9.3-4.6.7-6 1-1.4.3-4.1.8-6 1.1-9 1.4-32.5 6.4-51.2 11-1 .2-2.8.6-4 .9-16.6 3.6-65 19.4-88.6 28.9-23.3 9.3-61.5 26.8-69.2 31.6-.8.5-3.5 1.9-6 3.1-3.7 1.9-19.8 10.9-30 16.9-12.1 7.2-45.9 29.1-52.5 34.2-.5.4-7.7 5.8-15.9 11.9-8.2 6.2-15.9 12-17 12.9-12.7 10.5-22.3 18.6-23.2 19.4-.6.6-3.8 3.4-7 6.2-11.1 9.7-28.6 26.6-43.9 42.5-43.3 44.9-83.8 100.4-115.7 158.4-11.8 21.3-30.9 62.8-40 86.5-11.1 28.9-25.6 75-28.4 90-.2 1.4-.7 3.2-1 4-.6 1.8-4.6 19.6-6 27-.3 1.4-1.1 5.6-1.9 9.5-.7 3.8-1.6 8.8-2 11-.3 2.3-.7 5.2-1 6.5-.3 1.3-.7 4.2-1 6.5-.3 2.2-.8 4.7-1 5.5-.2.8-.7 4.4-1 8-.3 3.6-.8 7.2-1 8-.2.8-.7 4.4-1 8-.4 3.6-.8 7.6-1 9-.2 1.4-.7 6.3-1 11-.4 4.7-.8 10.1-1 12-2.2 24-2.2 89.8 0 106.8.2 1.6.6 6.9 1 11.9.3 5 .7 10 .9 11 .2 1 .7 4.9 1 8.8.4 3.8.9 8.1 1.1 9.5.2 1.4.7 4.5 1 7 .3 2.5.8 5.6 1 7 .2 1.4.7 4.3 1 6.5.3 2.3.7 5 .9 6.2.3 1.1.7 3.6 1 5.5 1 6.3 5.7 30.2 7.2 36.8 14.1 60.6 31.9 111.2 58 164.5 7.1 14.5 17.4 33.9 20.7 39.2 1.5 2.4 2.7 4.5 2.7 4.7 0 .3 2.2 4 4.8 8.3 2.6 4.3 6.1 10 7.7 12.7 3.9 6.4 23 35.2 25.6 38.5 1.1 1.4 5.5 7.4 9.8 13.2 7.3 10 16.8 22.2 21.7 27.9 12.5 14.6 22.5 26.3 25.9 30 5.9 6.6 41.1 41.7 48.1 48 15.3 13.9 29.4 25.8 44.7 37.6 6.7 5.1 12.7 9.7 13.2 10.2 17.2 13.4 58.9 40.3 84 54.2 9.4 5.1 39.1 20.2 48 24.2 15.9 7.3 34.2 15.2 35.5 15.3.3 0 5.2 1.9 11 4.2 19.8 7.8 67 22.9 80.4 25.8 1.2.2 3.2.7 4.6 1 1.4.4 4.1 1 6 1.5 1.9.4 8.5 1.9 14.5 3.3 6.1 1.4 12.7 2.8 14.8 3.1 2.1.3 7.1 1.3 11 2.1 6.6 1.3 13.6 2.5 24.2 4 2.3.3 5 .7 6 .9 2.7.5 15.6 2.1 24.5 3 27.1 2.8 49.3 4 79.5 4 31.9 0 55.6-1.2 79.5-3.9 1.9-.3 5.8-.7 8.5-.9 9.2-.9 39.4-5.4 40.4-6 .3-.2 2.9-.7 5.6-1 2.8-.4 6.8-1.1 9-1.6s5.4-1.1 7-1.4c1.7-.3 10.7-2.4 20-4.5 55.7-12.8 104.9-30.4 159.2-56.7 8.3-4.1 15.3-7.4 15.5-7.4.1 0 .3 18.8.3 41.7v41.8h400.8V1638c0-336.9-.3-401.6-1.8-418-.2-2.5-.7-8.1-1-12.5-.9-12-1.6-18.5-3-29.5-.3-1.9-.7-5.5-1-8-1.2-9.5-3.8-25.1-6.5-39.5-1.6-8.3-3.1-16.1-3.4-17.5-2-11.8-11.7-47.8-19.1-71-4.6-14.6-15.3-44.2-18.5-51.5-.5-1.1-3-7-5.6-13-6.1-14.5-8.9-20.4-19.9-42.5-8-15.9-11.9-23.1-22.5-41.6-11.6-20.1-36.8-57.8-49.5-73.9-16.8-21.3-28.2-35.1-42-50.5-7.5-8.4-46-46.5-54.5-54-4.7-4.1-9-8-9.6-8.5-.6-.6-3.3-2.8-6-5-2.6-2.2-6.7-5.6-8.9-7.5-2.3-1.9-5.6-4.6-7.5-6-1.8-1.4-3.8-3-4.4-3.6-.6-.5-5.6-4.4-11.1-8.5s-10.4-7.8-11-8.2c-3.3-2.7-24.9-17.5-35.5-24.3-32.2-20.8-76.5-44.3-111-58.8-10.2-4.3-19.4-8.2-20.5-8.7-4.9-2.1-50.7-17.7-62.5-21.2-10-3-42.9-11.3-48-12.2-1.9-.3-6.2-1.2-9.5-2-3.3-.7-10-2.1-15-3-9.8-1.7-9.3-1.7-21-3.4-4.4-.7-8.9-1.4-10-1.5-9.8-1.6-14.8-2.2-26-3.2-3.3-.3-7-.7-8.3-.9-1.3-.2-6.5-.7-11.5-1-5.1-.4-11.2-.9-13.7-1.2-5.2-.5-78.7-1.3-79.2-.8zm52.7 401.9c6.6.3 13.1.8 14.5 1 1.4.3 5.6.7 9.5 1.1 3.8.4 7.2.8 7.5 1 .4.2 2.6.6 5.1.9 4.6.6 4.9.6 17.4 3.2 10.1 2.1 31.1 8.2 43.5 12.7 101 36.7 179 118.1 211.4 220.7 2 6.3 3.9 12.8 4.2 14.4.3 1.6.7 3.2.9 3.6.6 1 5.2 22.7 6 28 .3 2.5 1 7 1.5 10 .8 4.8 1.5 11.7 2.6 25 .4 5.3.3 39.8-.1 45.5-1.9 23.1-5.4 44.2-10.7 64.5-2 7.8-7.3 25-8.8 28.5-.4 1.1-2.3 5.8-4.1 10.5-16.5 43.1-45.8 86.7-80.9 120.5-11.8 11.4-9.8 9.7-22 19.6-20.4 16.6-40.7 29.7-64.5 41.7-7.7 3.8-31.2 13.9-34.5 14.8-.8.2-5.5 1.8-10.5 3.5-7.4 2.5-15.6 4.9-25.5 7.4-4.8 1.3-19.1 4.1-25 5.1-1.9.3-4.6.7-6 1-3.2.5-20.2 2.5-25.5 2.9-6.8.6-44.7.6-50.5 0-17.5-1.6-29.3-3.1-35.5-4.5-2.2-.5-5.6-1.1-7.5-1.4-7.7-1.2-28.7-6.8-41.2-11-98.6-32.9-176.9-108.7-213.7-206.7-2.8-7.5-5.7-16-6.5-19-.8-3-2-7-2.6-8.9-1.2-3.9-5.8-23.8-6.6-28.5-.2-1.7-.9-5.5-1.4-8.5-1.2-7.2-2.2-15.7-3.6-30-.7-6.8-.7-40.8 0-49.5.5-6.1 2.5-24.6 3.1-27.3.2-1.1.6-3.7.9-5.8.4-2.2 1.3-7.1 2.1-11 18.1-88.1 69.3-165.1 143.6-215.7 26.8-18.3 52.5-31.2 82.4-41.4 5.5-1.9 10.7-3.6 11.5-3.9.8-.2 4.9-1.3 9-2.4 8-2.3 8-2.3 15-3.9 12.2-2.7 23.9-4.7 33.5-5.7 3.3-.3 7.1-.7 8.5-1 1.4-.2 7.7-.7 14-1 6.3-.4 11.6-.7 11.7-.8.3-.2 15.4.2 27.8.8z"/></svg>